<svg xmlns="http://www.w3.org/2000/svg" xmlns:xlink="http://www.w3.org/1999/xlink" width="6912" zoomAndPan="magnify" viewBox="0 0 5184 2592.000001" height="3456" preserveAspectRatio="xMidYMid meet" version="1.0"><defs><g/></defs><path fill="#ffffff" d="M 1 0 L 5183 0 L 5183 2591 L 1 2591 Z M 1 0 " fill-opacity="1" fill-rule="nonzero"/><path fill="#bbbbbb" d="M 1 0 L 5183 0 L 5183 2591 L 1 2591 Z M 1 0 " fill-opacity="1" fill-rule="nonzero"/><g fill="#f6f4f5" fill-opacity="1"><g transform="translate(1009.760196, 1747.631897)"><g><path d="M 146.546875 -704.890625 C 114.253906 -704.890625 88.015625 -714.578125 67.828125 -733.953125 C 47.640625 -753.335938 37.546875 -778.773438 37.546875 -810.265625 C 37.546875 -841.753906 47.640625 -867.390625 67.828125 -887.171875 C 88.015625 -906.960938 114.253906 -916.859375 146.546875 -916.859375 C 179.660156 -916.859375 206.304688 -906.960938 226.484375 -887.171875 C 246.671875 -867.390625 256.765625 -841.753906 256.765625 -810.265625 C 256.765625 -778.773438 246.671875 -753.335938 226.484375 -733.953125 C 206.304688 -714.578125 179.660156 -704.890625 146.546875 -704.890625 Z M 15.75 278.578125 C -10.894531 278.578125 -36.53125 276.757812 -61.15625 273.125 C -85.789062 269.488281 -107.394531 264.441406 -125.96875 257.984375 L -107.796875 127.171875 C -95.679688 131.210938 -83.363281 134.238281 -70.84375 136.25 C -58.332031 138.269531 -46.828125 139.28125 -36.328125 139.28125 C -8.066406 139.28125 13.929688 130.398438 29.671875 112.640625 C 45.421875 94.878906 53.296875 69.847656 53.296875 37.546875 L 53.296875 -620.109375 L 238.609375 -620.109375 L 238.609375 65.40625 C 238.609375 131.613281 219.023438 183.691406 179.859375 221.640625 C 140.703125 259.597656 86 278.578125 15.75 278.578125 Z M 15.75 278.578125 "/></g></g></g><g fill="#f6f4f5" fill-opacity="1"><g transform="translate(1325.875072, 1747.631897)"><g><path d="M 398.484375 24.21875 C 325.804688 24.21875 261.609375 9.890625 205.890625 -18.765625 C 150.179688 -47.429688 106.582031 -87.195312 75.09375 -138.0625 C 43.601562 -188.9375 27.859375 -247.484375 27.859375 -313.703125 C 27.859375 -379.097656 41.785156 -436.625 69.640625 -486.28125 C 97.492188 -535.9375 136.65625 -574.691406 187.125 -602.546875 C 237.59375 -630.410156 295.929688 -644.34375 362.140625 -644.34375 C 426.742188 -644.34375 483.0625 -631.015625 531.09375 -604.359375 C 579.132812 -577.710938 616.679688 -540.773438 643.734375 -493.546875 C 670.785156 -446.316406 684.3125 -391.613281 684.3125 -329.4375 C 684.3125 -317.332031 683.5 -305.019531 681.875 -292.5 C 680.257812 -279.988281 678.242188 -268.882812 675.828125 -259.1875 L 218.015625 -259.1875 C 223.660156 -214.78125 243.640625 -179.050781 277.953125 -152 C 312.273438 -124.945312 354.875 -111.421875 405.75 -111.421875 C 444.507812 -111.421875 480.84375 -119.296875 514.75 -135.046875 C 548.65625 -150.796875 574.488281 -171.1875 592.25 -196.21875 L 697.625 -115.0625 C 672.59375 -73.882812 633.234375 -40.375 579.546875 -14.53125 C 525.859375 11.300781 465.503906 24.21875 398.484375 24.21875 Z M 216.796875 -365.78125 L 496.59375 -365.78125 C 493.351562 -411.800781 479.625 -447.726562 455.40625 -473.5625 C 431.1875 -499.394531 400.097656 -512.3125 362.140625 -512.3125 C 323.390625 -512.3125 290.890625 -498.789062 264.640625 -471.75 C 238.398438 -444.707031 222.453125 -409.382812 216.796875 -365.78125 Z M 216.796875 -365.78125 "/></g></g></g><g fill="#f6f4f5" fill-opacity="1"><g transform="translate(2069.530231, 1747.631897)"><g><path d="M 239.8125 18.171875 C 175.21875 18.171875 122.128906 2.019531 80.546875 -30.28125 C 38.960938 -62.582031 18.171875 -105.378906 18.171875 -158.671875 C 18.171875 -211.960938 41.179688 -256.773438 87.203125 -293.109375 C 133.234375 -329.441406 202.675781 -352.453125 295.53125 -362.140625 L 415.4375 -376.671875 C 429.96875 -378.296875 441.675781 -382.941406 450.5625 -390.609375 C 459.445312 -398.273438 463.890625 -408.570312 463.890625 -421.5 C 463.890625 -448.144531 453.390625 -469.539062 432.390625 -485.6875 C 411.398438 -501.832031 384.351562 -509.90625 351.25 -509.90625 C 314.101562 -509.90625 283.414062 -498.398438 259.1875 -475.390625 C 234.96875 -452.378906 221.242188 -425.53125 218.015625 -394.84375 L 37.546875 -422.703125 C 41.585938 -465.492188 56.726562 -503.640625 82.96875 -537.140625 C 109.207031 -570.648438 144.9375 -596.894531 190.15625 -615.875 C 235.375 -634.851562 287.457031 -644.34375 346.40625 -644.34375 C 437.644531 -644.34375 510.3125 -621.9375 564.40625 -577.125 C 618.5 -532.3125 645.546875 -471.148438 645.546875 -393.640625 L 645.546875 -153.828125 C 645.546875 -123.941406 656.039062 -109 677.03125 -109 C 694.800781 -109 710.953125 -118.285156 725.484375 -136.859375 L 769.09375 -38.765625 C 750.519531 -20.191406 726.492188 -6.0625 697.015625 3.625 C 667.546875 13.320312 638.679688 18.171875 610.421875 18.171875 C 573.273438 18.171875 541.378906 8.078125 514.734375 -12.109375 C 488.097656 -32.296875 472.765625 -56.519531 468.734375 -84.78125 L 466.3125 -106.578125 L 465.09375 -106.578125 C 444.90625 -69.441406 415.429688 -39.363281 376.671875 -16.34375 C 337.921875 6.664062 292.300781 18.171875 239.8125 18.171875 Z M 310.0625 -109 C 353.664062 -109 389.597656 -122.523438 417.859375 -149.578125 C 446.117188 -176.628906 460.25 -211.148438 460.25 -253.140625 L 460.25 -278.578125 L 341.5625 -265.25 C 289.875 -259.59375 253.9375 -249.09375 233.75 -233.75 C 213.570312 -218.414062 203.484375 -200.65625 203.484375 -180.46875 C 203.484375 -159.46875 213.570312 -142.304688 233.75 -128.984375 C 253.9375 -115.660156 279.375 -109 310.0625 -109 Z M 310.0625 -109 "/></g></g></g><g fill="#f6f4f5" fill-opacity="1"><g transform="translate(2861.631956, 1747.631897)"><g><path d="M 454.203125 -638.28125 C 517.972656 -638.28125 568.023438 -619.707031 604.359375 -582.5625 C 640.703125 -545.414062 658.875 -493.742188 658.875 -427.546875 L 658.875 0 L 473.578125 0 L 473.578125 -370.625 C 473.578125 -406.15625 464.289062 -434.007812 445.71875 -454.1875 C 427.144531 -474.375 401.707031 -484.46875 369.40625 -484.46875 C 329.84375 -484.46875 297.34375 -471.546875 271.90625 -445.703125 C 246.476562 -419.867188 233.765625 -385.554688 233.765625 -342.765625 L 233.765625 0 L 48.453125 0 L 48.453125 -620.109375 L 204.6875 -620.109375 L 232.546875 -507.484375 L 233.765625 -507.484375 C 256.367188 -549.460938 286.441406 -581.753906 323.984375 -604.359375 C 361.535156 -626.972656 404.941406 -638.28125 454.203125 -638.28125 Z M 454.203125 -638.28125 "/></g></g></g><g fill="#f6f4f5" fill-opacity="1"><g transform="translate(3588.330944, 1747.631897)"><g><path d="M 325.8125 21.796875 C 270.09375 21.796875 219.828125 13.519531 175.015625 -3.03125 C 130.203125 -19.582031 94.269531 -43.804688 67.21875 -75.703125 C 40.164062 -107.597656 25.023438 -146.554688 21.796875 -192.578125 L 182.890625 -210.75 C 186.117188 -177.644531 202.066406 -151.195312 230.734375 -131.40625 C 259.398438 -111.625 294.722656 -101.734375 336.703125 -101.734375 C 371.429688 -101.734375 400.90625 -108.597656 425.125 -122.328125 C 449.351562 -136.054688 461.46875 -153.414062 461.46875 -174.40625 C 461.46875 -192.976562 451.570312 -208.117188 431.78125 -219.828125 C 412 -231.535156 380.304688 -241.023438 336.703125 -248.296875 L 244.65625 -262.828125 C 176.019531 -274.128906 126.359375 -293.503906 95.671875 -320.953125 C 64.992188 -348.410156 49.65625 -387.578125 49.65625 -438.453125 C 49.65625 -501.421875 74.28125 -551.070312 123.53125 -587.40625 C 172.789062 -623.738281 236.988281 -641.90625 316.125 -641.90625 C 365.375 -641.90625 409.578125 -634.234375 448.734375 -618.890625 C 487.898438 -603.554688 519.796875 -582.160156 544.421875 -554.703125 C 569.046875 -527.253906 583.78125 -495.367188 588.625 -459.046875 L 431.1875 -436.03125 C 428.757812 -462.675781 416.238281 -483.867188 393.625 -499.609375 C 371.019531 -515.347656 343.164062 -523.21875 310.0625 -523.21875 C 281 -523.21875 256.773438 -516.554688 237.390625 -503.234375 C 218.015625 -489.921875 207.921875 -473.976562 207.109375 -455.40625 C 207.109375 -440.0625 215.382812 -427.140625 231.9375 -416.640625 C 248.488281 -406.148438 275.335938 -397.675781 312.484375 -391.21875 L 404.53125 -375.46875 C 482.84375 -361.738281 539.5625 -340.140625 574.6875 -310.671875 C 609.8125 -281.203125 627.375 -240.625 627.375 -188.9375 C 627.375 -146.144531 614.65625 -109.003906 589.21875 -77.515625 C 563.789062 -46.023438 528.46875 -21.597656 483.25 -4.234375 C 438.039062 13.117188 385.5625 21.796875 325.8125 21.796875 Z M 325.8125 21.796875 "/></g></g></g><g fill="#ffffff" fill-opacity="1"><g transform="translate(2016.858828, 720.648538)"><g><path d="M 0.859375 0 L 29.609375 -76.609375 L 46.03125 -76.609375 L 74.5625 0 L 60.40625 0 L 54.46875 -16.75 L 21.078125 -16.75 L 15.015625 0 Z M 23.984375 -27.234375 L 51.4375 -27.234375 L 37.9375 -64.953125 L 37.71875 -64.953125 Z M 23.984375 -27.234375 "/></g></g></g><g fill="#ffffff" fill-opacity="1"><g transform="translate(2092.27916, 720.648538)"><g/></g></g><g fill="#ffffff" fill-opacity="1"><g transform="translate(2119.076068, 720.648538)"><g><path d="M 36.203125 2.703125 C 30.148438 2.703125 24.65625 1.640625 19.71875 -0.484375 C 14.78125 -2.609375 10.78125 -5.648438 7.71875 -9.609375 C 4.664062 -13.578125 2.847656 -18.226562 2.265625 -23.5625 L 14.90625 -25.9375 C 15.195312 -22.40625 16.316406 -19.285156 18.265625 -16.578125 C 20.210938 -13.878906 22.769531 -11.773438 25.9375 -10.265625 C 29.101562 -8.753906 32.632812 -8 36.53125 -8 C 41.851562 -8 46.0625 -9.203125 49.15625 -11.609375 C 52.257812 -14.023438 53.8125 -17 53.8125 -20.53125 C 53.8125 -23.488281 52.675781 -25.863281 50.40625 -27.65625 C 48.132812 -29.457031 44.441406 -30.898438 39.328125 -31.984375 L 27.765625 -34.46875 C 20.203125 -36.050781 14.640625 -38.519531 11.078125 -41.875 C 7.515625 -45.226562 5.734375 -49.675781 5.734375 -55.21875 C 5.734375 -60.039062 6.921875 -64.253906 9.296875 -67.859375 C 11.671875 -71.460938 14.960938 -74.269531 19.171875 -76.28125 C 23.390625 -78.300781 28.273438 -79.3125 33.828125 -79.3125 C 38.867188 -79.3125 43.40625 -78.394531 47.4375 -76.5625 C 51.46875 -74.726562 54.796875 -72.171875 57.421875 -68.890625 C 60.054688 -65.609375 61.703125 -61.769531 62.359375 -57.375 L 49.921875 -54.578125 C 49.421875 -58.828125 47.691406 -62.226562 44.734375 -64.78125 C 41.785156 -67.34375 38.148438 -68.625 33.828125 -68.625 C 29.285156 -68.625 25.679688 -67.488281 23.015625 -65.21875 C 20.347656 -62.945312 19.015625 -60.117188 19.015625 -56.734375 C 19.015625 -53.992188 20.023438 -51.773438 22.046875 -50.078125 C 24.066406 -48.390625 27.269531 -47.078125 31.65625 -46.140625 L 43.328125 -43.765625 C 59.109375 -40.671875 67 -33.503906 67 -22.265625 C 67 -17.285156 65.703125 -12.921875 63.109375 -9.171875 C 60.515625 -5.429688 56.910156 -2.515625 52.296875 -0.421875 C 47.691406 1.660156 42.328125 2.703125 36.203125 2.703125 Z M 36.203125 2.703125 "/></g></g></g><g fill="#ffffff" fill-opacity="1"><g transform="translate(2188.013271, 720.648538)"><g><path d="M 37.9375 2.703125 C 31.300781 2.703125 25.535156 1.390625 20.640625 -1.234375 C 15.742188 -3.867188 11.960938 -7.5625 9.296875 -12.3125 C 6.628906 -17.070312 5.296875 -22.65625 5.296875 -29.0625 L 5.296875 -76.609375 L 18.796875 -76.609375 L 18.796875 -29.28125 C 18.796875 -25.539062 19.570312 -22.117188 21.125 -19.015625 C 22.675781 -15.921875 24.890625 -13.472656 27.765625 -11.671875 C 30.648438 -9.867188 34.039062 -8.96875 37.9375 -8.96875 C 43.769531 -8.96875 48.414062 -10.835938 51.875 -14.578125 C 55.332031 -18.328125 57.0625 -23.226562 57.0625 -29.28125 L 57.0625 -76.609375 L 70.5625 -76.609375 L 70.5625 -29.0625 C 70.5625 -22.65625 69.207031 -17.070312 66.5 -12.3125 C 63.800781 -7.5625 60.019531 -3.867188 55.15625 -1.234375 C 50.300781 1.390625 44.5625 2.703125 37.9375 2.703125 Z M 37.9375 2.703125 "/></g></g></g><g fill="#ffffff" fill-opacity="1"><g transform="translate(2263.865817, 720.648538)"><g><path d="M 0.859375 0 L 29.609375 -76.609375 L 46.03125 -76.609375 L 74.5625 0 L 60.40625 0 L 54.46875 -16.75 L 21.078125 -16.75 L 15.015625 0 Z M 23.984375 -27.234375 L 51.4375 -27.234375 L 37.9375 -64.953125 L 37.71875 -64.953125 Z M 23.984375 -27.234375 "/></g></g></g><g fill="#ffffff" fill-opacity="1"><g transform="translate(2339.286148, 720.648538)"><g/></g></g><g fill="#ffffff" fill-opacity="1"><g transform="translate(2366.083045, 720.648538)"><g><path d="M 6.265625 0 L 6.265625 -76.609375 L 39.875 -76.609375 C 45.5625 -76.609375 50.546875 -75.582031 54.828125 -73.53125 C 59.117188 -71.476562 62.472656 -68.632812 64.890625 -65 C 67.304688 -61.363281 68.515625 -57.128906 68.515625 -52.296875 C 68.515625 -47.546875 67.304688 -43.347656 64.890625 -39.703125 C 62.472656 -36.066406 59.101562 -33.222656 54.78125 -31.171875 C 50.457031 -29.117188 45.453125 -28.09375 39.765625 -28.09375 L 19.5625 -28.09375 L 19.5625 0 Z M 19.5625 -38.796875 L 38.46875 -38.796875 C 43.363281 -38.796875 47.359375 -40.054688 50.453125 -42.578125 C 53.554688 -45.097656 55.109375 -48.335938 55.109375 -52.296875 C 55.109375 -56.335938 53.578125 -59.617188 50.515625 -62.140625 C 47.453125 -64.660156 43.4375 -65.921875 38.46875 -65.921875 L 19.5625 -65.921875 Z M 19.5625 -38.796875 "/></g></g></g><g fill="#ffffff" fill-opacity="1"><g transform="translate(2436.749092, 720.648538)"><g><path d="M 6.265625 0 L 6.265625 -76.609375 L 59.328125 -76.609375 L 59.328125 -65.375 L 19.234375 -65.375 L 19.234375 -44.515625 L 55 -44.515625 L 55 -34.25 L 19.234375 -34.25 L 19.234375 -11.234375 L 60.40625 -11.234375 L 60.40625 0 Z M 6.265625 0 "/></g></g></g><g fill="#ffffff" fill-opacity="1"><g transform="translate(2499.63538, 720.648538)"><g><path d="M 83.09375 -29.28125 C 82.226562 -22.945312 80.15625 -17.421875 76.875 -12.703125 C 73.601562 -7.984375 69.351562 -4.289062 64.125 -1.625 C 58.90625 1.039062 52.945312 2.484375 46.25 2.703125 L 45.921875 5.1875 C 49.097656 5.40625 51.617188 6.234375 53.484375 7.671875 C 55.359375 9.109375 56.296875 11.125 56.296875 13.71875 C 56.296875 16.3125 55.394531 18.382812 53.59375 19.9375 C 51.789062 21.488281 49.414062 22.265625 46.46875 22.265625 C 44.375 22.265625 42.375 21.703125 40.46875 20.578125 C 38.5625 19.460938 37.175781 18.078125 36.3125 16.421875 L 39.546875 13.9375 C 40.128906 15.09375 41.066406 16.066406 42.359375 16.859375 C 43.660156 17.648438 45.03125 18.046875 46.46875 18.046875 C 48.195312 18.046875 49.566406 17.664062 50.578125 16.90625 C 51.585938 16.15625 52.09375 15.164062 52.09375 13.9375 C 52.15625 12.425781 51.519531 11.238281 50.1875 10.375 C 48.863281 9.507812 47.15625 9.078125 45.0625 9.078125 L 41.28125 9.078125 L 42.03125 2.703125 C 34.175781 2.335938 27.367188 0.425781 21.609375 -3.03125 C 15.847656 -6.488281 11.398438 -11.222656 8.265625 -17.234375 C 5.128906 -23.253906 3.5625 -30.257812 3.5625 -38.25 C 3.5625 -46.613281 5.128906 -53.875 8.265625 -60.03125 C 11.398438 -66.1875 15.882812 -70.9375 21.71875 -74.28125 C 27.550781 -77.632812 34.429688 -79.3125 42.359375 -79.3125 C 48.265625 -79.3125 53.59375 -78.175781 58.34375 -75.90625 C 63.101562 -73.644531 67.066406 -70.457031 70.234375 -66.34375 C 73.410156 -62.238281 75.503906 -57.378906 76.515625 -51.765625 L 63.96875 -48.625 C 62.957031 -54.457031 60.523438 -59.066406 56.671875 -62.453125 C 52.816406 -65.847656 48.046875 -67.546875 42.359375 -67.546875 C 37.171875 -67.546875 32.6875 -66.351562 28.90625 -63.96875 C 25.125 -61.59375 22.1875 -58.207031 20.09375 -53.8125 C 18.007812 -49.414062 16.96875 -44.226562 16.96875 -38.25 C 17.039062 -32.34375 18.191406 -27.191406 20.421875 -22.796875 C 22.660156 -18.398438 25.847656 -14.992188 29.984375 -12.578125 C 34.128906 -10.171875 39.007812 -8.96875 44.625 -8.96875 C 49.164062 -8.96875 53.253906 -9.90625 56.890625 -11.78125 C 60.535156 -13.65625 63.523438 -16.285156 65.859375 -19.671875 C 68.203125 -23.054688 69.695312 -27.015625 70.34375 -31.546875 Z M 83.09375 -29.28125 "/></g></g></g><g fill="#ffffff" fill-opacity="1"><g transform="translate(2584.672363, 720.648538)"><g><path d="M 0.859375 0 L 29.609375 -76.609375 L 46.03125 -76.609375 L 74.5625 0 L 60.40625 0 L 54.46875 -16.75 L 21.078125 -16.75 L 15.015625 0 Z M 23.984375 -27.234375 L 51.4375 -27.234375 L 37.9375 -64.953125 L 37.71875 -64.953125 Z M 23.984375 -27.234375 "/></g></g></g><g fill="#ffffff" fill-opacity="1"><g transform="translate(2660.092695, 720.648538)"><g/></g></g><g fill="#ffffff" fill-opacity="1"><g transform="translate(2686.889591, 720.648538)"><g><path d="M 6.265625 0 L 6.265625 -76.609375 L 56.515625 -76.609375 L 56.515625 -64.84375 L 19.671875 -64.84375 L 19.671875 -42.359375 L 50.03125 -42.359375 L 50.03125 -31.65625 L 19.671875 -31.65625 L 19.671875 0 Z M 6.265625 0 "/></g></g></g><g fill="#ffffff" fill-opacity="1"><g transform="translate(2745.453787, 720.648538)"><g><path d="M 0.859375 0 L 29.609375 -76.609375 L 46.03125 -76.609375 L 74.5625 0 L 60.40625 0 L 54.46875 -16.75 L 21.078125 -16.75 L 15.015625 0 Z M 23.984375 -27.234375 L 51.4375 -27.234375 L 37.9375 -64.953125 L 37.71875 -64.953125 Z M 23.984375 -27.234375 "/></g></g></g><g fill="#ffffff" fill-opacity="1"><g transform="translate(2820.874165, 720.648538)"><g><path d="M 29.5 0 L 0.859375 -76.609375 L 14.90625 -76.609375 L 37.28125 -12.859375 L 37.5 -12.859375 L 59.65625 -76.609375 L 73.8125 -76.609375 L 45.0625 0 Z M 29.5 0 "/></g></g></g><g fill="#ffffff" fill-opacity="1"><g transform="translate(2895.538105, 720.648538)"><g><path d="M 45.28125 2.703125 C 36.851562 2.703125 29.519531 1.007812 23.28125 -2.375 C 17.050781 -5.757812 12.207031 -10.53125 8.75 -16.6875 C 5.289062 -22.851562 3.5625 -30.039062 3.5625 -38.25 C 3.5625 -46.539062 5.289062 -53.742188 8.75 -59.859375 C 12.207031 -65.984375 17.050781 -70.753906 23.28125 -74.171875 C 29.519531 -77.597656 36.851562 -79.3125 45.28125 -79.3125 C 53.707031 -79.3125 61.050781 -77.597656 67.3125 -74.171875 C 73.582031 -70.753906 78.445312 -65.984375 81.90625 -59.859375 C 85.363281 -53.742188 87.09375 -46.539062 87.09375 -38.25 C 87.09375 -30.039062 85.363281 -22.851562 81.90625 -16.6875 C 78.445312 -10.53125 73.582031 -5.757812 67.3125 -2.375 C 61.050781 1.007812 53.707031 2.703125 45.28125 2.703125 Z M 45.28125 -8.96875 C 50.96875 -8.96875 55.9375 -10.191406 60.1875 -12.640625 C 64.4375 -15.085938 67.734375 -18.507812 70.078125 -22.90625 C 72.421875 -27.300781 73.59375 -32.414062 73.59375 -38.25 C 73.59375 -44.15625 72.421875 -49.285156 70.078125 -53.640625 C 67.734375 -58.003906 64.4375 -61.410156 60.1875 -63.859375 C 55.9375 -66.316406 50.96875 -67.546875 45.28125 -67.546875 C 39.582031 -67.546875 34.609375 -66.316406 30.359375 -63.859375 C 26.109375 -61.410156 22.8125 -58.003906 20.46875 -53.640625 C 18.132812 -49.285156 16.96875 -44.15625 16.96875 -38.25 C 16.96875 -32.414062 18.132812 -27.300781 20.46875 -22.90625 C 22.8125 -18.507812 26.109375 -15.085938 30.359375 -12.640625 C 34.609375 -10.191406 39.582031 -8.96875 45.28125 -8.96875 Z M 45.28125 -8.96875 "/></g></g></g><g fill="#ffffff" fill-opacity="1"><g transform="translate(2986.1938, 720.648538)"><g><path d="M 62.453125 2.046875 C 59.066406 2.046875 56.289062 1.113281 54.125 -0.75 C 51.96875 -2.625 50.425781 -5.113281 49.5 -8.21875 L 45.5 -21.9375 C 44.769531 -24.457031 43.523438 -26.546875 41.765625 -28.203125 C 40.003906 -29.859375 37.894531 -30.6875 35.4375 -30.6875 L 19.671875 -30.6875 L 19.671875 0 L 6.265625 0 L 6.265625 -76.609375 L 42.359375 -76.609375 C 47.984375 -76.609375 52.921875 -75.65625 57.171875 -73.75 C 61.421875 -71.84375 64.710938 -69.175781 67.046875 -65.75 C 69.390625 -62.332031 70.5625 -58.351562 70.5625 -53.8125 C 70.5625 -48.550781 68.832031 -44.066406 65.375 -40.359375 C 61.914062 -36.648438 57.125 -34.253906 51 -33.171875 L 51 -33.0625 C 53.09375 -32.125 54.75 -30.828125 55.96875 -29.171875 C 57.195312 -27.515625 58.132812 -25.570312 58.78125 -23.34375 L 61.921875 -11.890625 C 62.273438 -10.660156 62.832031 -9.628906 63.59375 -8.796875 C 64.351562 -7.972656 65.304688 -7.5625 66.453125 -7.5625 C 67.535156 -7.5625 68.617188 -7.9375 69.703125 -8.6875 C 70.785156 -9.445312 71.722656 -10.441406 72.515625 -11.671875 L 76.71875 -4.75 C 74.988281 -2.738281 72.898438 -1.101562 70.453125 0.15625 C 68.003906 1.414062 65.335938 2.046875 62.453125 2.046875 Z M 19.671875 -40.953125 L 41.171875 -40.953125 C 45.921875 -40.953125 49.753906 -42.085938 52.671875 -44.359375 C 55.597656 -46.628906 57.0625 -49.640625 57.0625 -53.390625 C 57.0625 -57.054688 55.597656 -60.0625 52.671875 -62.40625 C 49.753906 -64.75 45.921875 -65.921875 41.171875 -65.921875 L 19.671875 -65.921875 Z M 19.671875 -40.953125 "/></g></g></g><g fill="#ffffff" fill-opacity="1"><g transform="translate(3063.126823, 720.648538)"><g><path d="M 6.265625 0 L 6.265625 -76.609375 L 19.671875 -76.609375 L 19.671875 0 Z M 6.265625 0 "/></g></g></g><g fill="#ffffff" fill-opacity="1"><g transform="translate(3089.059291, 720.648538)"><g><path d="M 25.71875 0 L 25.71875 -64.84375 L 1.296875 -64.84375 L 1.296875 -76.609375 L 63.4375 -76.609375 L 63.4375 -64.84375 L 39.125 -64.84375 L 39.125 0 Z M 25.71875 0 "/></g></g></g><g fill="#ffffff" fill-opacity="1"><g transform="translate(3153.890509, 720.648538)"><g><path d="M 0.859375 0 L 29.609375 -76.609375 L 46.03125 -76.609375 L 74.5625 0 L 60.40625 0 L 54.46875 -16.75 L 21.078125 -16.75 L 15.015625 0 Z M 23.984375 -27.234375 L 51.4375 -27.234375 L 37.9375 -64.953125 L 37.71875 -64.953125 Z M 23.984375 -27.234375 "/></g></g></g><g fill="#ffffff" fill-opacity="1"><g transform="translate(2194.22399, 854.097048)"><g/></g></g><g fill="#ffffff" fill-opacity="1"><g transform="translate(2221.026149, 854.097048)"><g><path d="M 6.265625 0 L 6.265625 -76.609375 L 59.328125 -76.609375 L 59.328125 -65.375 L 19.234375 -65.375 L 19.234375 -44.515625 L 55 -44.515625 L 55 -34.25 L 19.234375 -34.25 L 19.234375 -11.234375 L 60.40625 -11.234375 L 60.40625 0 Z M 6.265625 0 "/></g></g></g><g fill="#ffffff" fill-opacity="1"><g transform="translate(2283.912437, 854.097048)"><g><path d="M 36.203125 2.703125 C 30.148438 2.703125 24.65625 1.640625 19.71875 -0.484375 C 14.78125 -2.609375 10.78125 -5.648438 7.71875 -9.609375 C 4.664062 -13.578125 2.847656 -18.226562 2.265625 -23.5625 L 14.90625 -25.9375 C 15.195312 -22.40625 16.316406 -19.285156 18.265625 -16.578125 C 20.210938 -13.878906 22.769531 -11.773438 25.9375 -10.265625 C 29.101562 -8.753906 32.632812 -8 36.53125 -8 C 41.851562 -8 46.0625 -9.203125 49.15625 -11.609375 C 52.257812 -14.023438 53.8125 -17 53.8125 -20.53125 C 53.8125 -23.488281 52.675781 -25.863281 50.40625 -27.65625 C 48.132812 -29.457031 44.441406 -30.898438 39.328125 -31.984375 L 27.765625 -34.46875 C 20.203125 -36.050781 14.640625 -38.519531 11.078125 -41.875 C 7.515625 -45.226562 5.734375 -49.675781 5.734375 -55.21875 C 5.734375 -60.039062 6.921875 -64.253906 9.296875 -67.859375 C 11.671875 -71.460938 14.960938 -74.269531 19.171875 -76.28125 C 23.390625 -78.300781 28.273438 -79.3125 33.828125 -79.3125 C 38.867188 -79.3125 43.40625 -78.394531 47.4375 -76.5625 C 51.46875 -74.726562 54.796875 -72.171875 57.421875 -68.890625 C 60.054688 -65.609375 61.703125 -61.769531 62.359375 -57.375 L 49.921875 -54.578125 C 49.421875 -58.828125 47.691406 -62.226562 44.734375 -64.78125 C 41.785156 -67.34375 38.148438 -68.625 33.828125 -68.625 C 29.285156 -68.625 25.679688 -67.488281 23.015625 -65.21875 C 20.347656 -62.945312 19.015625 -60.117188 19.015625 -56.734375 C 19.015625 -53.992188 20.023438 -51.773438 22.046875 -50.078125 C 24.066406 -48.390625 27.269531 -47.078125 31.65625 -46.140625 L 43.328125 -43.765625 C 59.109375 -40.671875 67 -33.503906 67 -22.265625 C 67 -17.285156 65.703125 -12.921875 63.109375 -9.171875 C 60.515625 -5.429688 56.910156 -2.515625 52.296875 -0.421875 C 47.691406 1.660156 42.328125 2.703125 36.203125 2.703125 Z M 36.203125 2.703125 "/></g></g></g><g fill="#ffffff" fill-opacity="1"><g transform="translate(2352.84964, 854.097048)"><g><path d="M 25.71875 0 L 25.71875 -64.84375 L 1.296875 -64.84375 L 1.296875 -76.609375 L 63.4375 -76.609375 L 63.4375 -64.84375 L 39.125 -64.84375 L 39.125 0 Z M 25.71875 0 "/></g></g></g><g fill="#ffffff" fill-opacity="1"><g transform="translate(2417.680869, 854.097048)"><g><path d="M 38.6875 -84.078125 L 35.4375 -86.671875 L 45.8125 -100.171875 L 49.0625 -97.46875 Z M 0.859375 0 L 29.609375 -76.609375 L 46.03125 -76.609375 L 74.5625 0 L 60.40625 0 L 54.46875 -16.75 L 21.078125 -16.75 L 15.015625 0 Z M 23.984375 -27.234375 L 51.4375 -27.234375 L 37.9375 -64.953125 L 37.71875 -64.953125 Z M 23.984375 -27.234375 "/></g></g></g><g fill="#ffffff" fill-opacity="1"><g transform="translate(2493.101201, 854.097048)"><g/></g></g><g fill="#ffffff" fill-opacity="1"><g transform="translate(2519.89812, 854.097048)"><g><path d="M 6.265625 0 L 6.265625 -76.609375 L 35.765625 -76.609375 C 48.878906 -76.609375 58.945312 -73.296875 65.96875 -66.671875 C 73 -60.046875 76.515625 -50.570312 76.515625 -38.25 C 76.515625 -26.007812 73 -16.570312 65.96875 -9.9375 C 58.945312 -3.3125 48.878906 0 35.765625 0 Z M 19.453125 -11.234375 L 35.765625 -11.234375 C 44.554688 -11.234375 51.289062 -13.554688 55.96875 -18.203125 C 60.65625 -22.847656 63 -29.53125 63 -38.25 C 63 -47.039062 60.65625 -53.757812 55.96875 -58.40625 C 51.289062 -63.050781 44.554688 -65.375 35.765625 -65.375 L 19.453125 -65.375 Z M 19.453125 -11.234375 "/></g></g></g><g fill="#ffffff" fill-opacity="1"><g transform="translate(2599.9647, 854.097048)"><g><path d="M 6.265625 0 L 6.265625 -76.609375 L 59.328125 -76.609375 L 59.328125 -65.375 L 19.234375 -65.375 L 19.234375 -44.515625 L 55 -44.515625 L 55 -34.25 L 19.234375 -34.25 L 19.234375 -11.234375 L 60.40625 -11.234375 L 60.40625 0 Z M 6.265625 0 "/></g></g></g><g fill="#ffffff" fill-opacity="1"><g transform="translate(2662.850988, 854.097048)"><g/></g></g><g fill="#ffffff" fill-opacity="1"><g transform="translate(2689.647884, 854.097048)"><g><path d="M 29.5 0 L 0.859375 -76.609375 L 14.90625 -76.609375 L 37.28125 -12.859375 L 37.5 -12.859375 L 59.65625 -76.609375 L 73.8125 -76.609375 L 45.0625 0 Z M 29.5 0 "/></g></g></g><g fill="#ffffff" fill-opacity="1"><g transform="translate(2764.311825, 854.097048)"><g><path d="M 45.28125 2.703125 C 36.851562 2.703125 29.519531 1.007812 23.28125 -2.375 C 17.050781 -5.757812 12.207031 -10.53125 8.75 -16.6875 C 5.289062 -22.851562 3.5625 -30.039062 3.5625 -38.25 C 3.5625 -46.539062 5.289062 -53.742188 8.75 -59.859375 C 12.207031 -65.984375 17.050781 -70.753906 23.28125 -74.171875 C 29.519531 -77.597656 36.851562 -79.3125 45.28125 -79.3125 C 53.707031 -79.3125 61.050781 -77.597656 67.3125 -74.171875 C 73.582031 -70.753906 78.445312 -65.984375 81.90625 -59.859375 C 85.363281 -53.742188 87.09375 -46.539062 87.09375 -38.25 C 87.09375 -30.039062 85.363281 -22.851562 81.90625 -16.6875 C 78.445312 -10.53125 73.582031 -5.757812 67.3125 -2.375 C 61.050781 1.007812 53.707031 2.703125 45.28125 2.703125 Z M 45.28125 -8.96875 C 50.96875 -8.96875 55.9375 -10.191406 60.1875 -12.640625 C 64.4375 -15.085938 67.734375 -18.507812 70.078125 -22.90625 C 72.421875 -27.300781 73.59375 -32.414062 73.59375 -38.25 C 73.59375 -44.15625 72.421875 -49.285156 70.078125 -53.640625 C 67.734375 -58.003906 64.4375 -61.410156 60.1875 -63.859375 C 55.9375 -66.316406 50.96875 -67.546875 45.28125 -67.546875 C 39.582031 -67.546875 34.609375 -66.316406 30.359375 -63.859375 C 26.109375 -61.410156 22.8125 -58.003906 20.46875 -53.640625 C 18.132812 -49.285156 16.96875 -44.15625 16.96875 -38.25 C 16.96875 -32.414062 18.132812 -27.300781 20.46875 -22.90625 C 22.8125 -18.507812 26.109375 -15.085938 30.359375 -12.640625 C 34.609375 -10.191406 39.582031 -8.96875 45.28125 -8.96875 Z M 45.28125 -8.96875 "/></g></g></g><g fill="#ffffff" fill-opacity="1"><g transform="translate(2854.967519, 854.097048)"><g><path d="M 6.265625 0 L 6.265625 -76.609375 L 19.671875 -76.609375 L 19.671875 -11.671875 L 55.328125 -11.671875 L 55.328125 0 Z M 6.265625 0 "/></g></g></g><g fill="#ffffff" fill-opacity="1"><g transform="translate(2911.694868, 854.097048)"><g><path d="M 25.71875 0 L 25.71875 -64.84375 L 1.296875 -64.84375 L 1.296875 -76.609375 L 63.4375 -76.609375 L 63.4375 -64.84375 L 39.125 -64.84375 L 39.125 0 Z M 25.71875 0 "/></g></g></g><g fill="#ffffff" fill-opacity="1"><g transform="translate(2976.526086, 854.097048)"><g><path d="M 0.859375 0 L 29.609375 -76.609375 L 46.03125 -76.609375 L 74.5625 0 L 60.40625 0 L 54.46875 -16.75 L 21.078125 -16.75 L 15.015625 0 Z M 23.984375 -27.234375 L 51.4375 -27.234375 L 37.9375 -64.953125 L 37.71875 -64.953125 Z M 23.984375 -27.234375 "/></g></g></g></svg>