<svg xmlns="http://www.w3.org/2000/svg" xmlns:xlink="http://www.w3.org/1999/xlink" width="400" zoomAndPan="magnify" viewBox="0 0 300 89.999999" height="120" preserveAspectRatio="xMidYMid meet" version="1.0"><defs><g/></defs><rect x="-30" width="360" fill="#ffffff" y="-9" height="107.999999" fill-opacity="1"/><rect x="-30" width="360" fill="#ffffff" y="-9" height="107.999999" fill-opacity="1"/><g fill="#000000" fill-opacity="1"><g transform="translate(68.836667, 53.981076)"><g><path d="M 7.34375 -0.765625 L 7.34375 0 L 1.375 0 L 1.375 -8.4375 L 7.15625 -8.4375 L 7.15625 -7.65625 L 2.265625 -7.65625 L 2.265625 -4.65625 L 6.625 -4.65625 L 6.625 -3.90625 L 2.265625 -3.90625 L 2.265625 -0.765625 Z M 5.140625 -10.609375 L 6.28125 -10.609375 L 4.34375 -9.125 L 3.5 -9.125 Z M 5.140625 -10.609375 "/></g></g></g><g fill="#000000" fill-opacity="1"><g transform="translate(82.318907, 53.981076)"><g><path d="M 5.03125 0.078125 C 4.195312 0.078125 3.441406 -0.101562 2.765625 -0.46875 C 2.097656 -0.84375 1.570312 -1.359375 1.1875 -2.015625 C 0.8125 -2.671875 0.625 -3.40625 0.625 -4.21875 C 0.625 -5.03125 0.8125 -5.757812 1.1875 -6.40625 C 1.570312 -7.0625 2.101562 -7.570312 2.78125 -7.9375 C 3.457031 -8.3125 4.210938 -8.5 5.046875 -8.5 C 5.671875 -8.5 6.25 -8.394531 6.78125 -8.1875 C 7.3125 -7.976562 7.757812 -7.675781 8.125 -7.28125 L 7.5625 -6.703125 C 6.90625 -7.367188 6.078125 -7.703125 5.078125 -7.703125 C 4.410156 -7.703125 3.800781 -7.550781 3.25 -7.25 C 2.707031 -6.945312 2.28125 -6.53125 1.96875 -6 C 1.65625 -5.46875 1.5 -4.875 1.5 -4.21875 C 1.5 -3.5625 1.65625 -2.96875 1.96875 -2.4375 C 2.28125 -1.90625 2.707031 -1.484375 3.25 -1.171875 C 3.800781 -0.867188 4.410156 -0.71875 5.078125 -0.71875 C 6.085938 -0.71875 6.914062 -1.054688 7.5625 -1.734375 L 8.125 -1.171875 C 7.757812 -0.765625 7.304688 -0.453125 6.765625 -0.234375 C 6.234375 -0.0234375 5.65625 0.078125 5.03125 0.078125 Z M 5.03125 0.078125 "/></g></g></g><g fill="#000000" fill-opacity="1"><g transform="translate(96.403509, 53.981076)"><g><path d="M 1.375 -8.4375 L 2.265625 -8.4375 L 2.265625 -0.765625 L 6.984375 -0.765625 L 6.984375 0 L 1.375 0 Z M 1.375 -8.4375 "/></g></g></g><g fill="#000000" fill-opacity="1"><g transform="translate(108.921968, 53.981076)"><g><path d="M 6.65625 -2.25 L 1.96875 -2.25 L 0.953125 0 L 0.03125 0 L 3.875 -8.4375 L 4.765625 -8.4375 L 8.609375 0 L 7.671875 0 Z M 6.34375 -2.96875 L 4.3125 -7.5 L 2.28125 -2.96875 Z M 6.34375 -2.96875 "/></g></g></g><g fill="#000000" fill-opacity="1"><g transform="translate(122.98248, 53.981076)"><g><path d="M 5.03125 0.078125 C 4.195312 0.078125 3.441406 -0.101562 2.765625 -0.46875 C 2.097656 -0.84375 1.570312 -1.359375 1.1875 -2.015625 C 0.8125 -2.671875 0.625 -3.40625 0.625 -4.21875 C 0.625 -5.03125 0.8125 -5.757812 1.1875 -6.40625 C 1.570312 -7.0625 2.101562 -7.570312 2.78125 -7.9375 C 3.457031 -8.3125 4.210938 -8.5 5.046875 -8.5 C 5.671875 -8.5 6.25 -8.394531 6.78125 -8.1875 C 7.3125 -7.976562 7.757812 -7.675781 8.125 -7.28125 L 7.5625 -6.703125 C 6.90625 -7.367188 6.078125 -7.703125 5.078125 -7.703125 C 4.410156 -7.703125 3.800781 -7.550781 3.25 -7.25 C 2.707031 -6.945312 2.28125 -6.53125 1.96875 -6 C 1.65625 -5.46875 1.5 -4.875 1.5 -4.21875 C 1.5 -3.5625 1.65625 -2.96875 1.96875 -2.4375 C 2.28125 -1.90625 2.707031 -1.484375 3.25 -1.171875 C 3.800781 -0.867188 4.410156 -0.71875 5.078125 -0.71875 C 6.085938 -0.71875 6.914062 -1.054688 7.5625 -1.734375 L 8.125 -1.171875 C 7.757812 -0.765625 7.304688 -0.453125 6.765625 -0.234375 C 6.234375 -0.0234375 5.65625 0.078125 5.03125 0.078125 Z M 5.03125 0.078125 "/></g></g></g><g fill="#000000" fill-opacity="1"><g transform="translate(121.347953, 74.937188)"><g><path d="M 14.984375 -4.515625 C 13.273438 -4.515625 11.984375 -4.5625 11.109375 -4.65625 C 10.234375 -4.757812 9.59375 -4.914062 9.1875 -5.125 C 8.832031 -5.320312 8.53125 -5.554688 8.28125 -5.828125 C 8.03125 -6.109375 7.90625 -6.300781 7.90625 -6.40625 C 7.90625 -6.550781 7.851562 -6.578125 7.75 -6.484375 C 7.707031 -6.429688 7.660156 -6.578125 7.609375 -6.921875 C 7.554688 -7.273438 7.53125 -7.703125 7.53125 -8.203125 C 7.53125 -9.160156 7.859375 -10.09375 8.515625 -11 C 9.015625 -11.75 9.703125 -12.585938 10.578125 -13.515625 C 11.460938 -14.441406 12.332031 -15.304688 13.1875 -16.109375 L 15.28125 -17.921875 C 15.6875 -18.328125 16.519531 -19.003906 17.78125 -19.953125 L 20.484375 -21.984375 C 20.734375 -22.191406 21.179688 -22.492188 21.828125 -22.890625 C 22.484375 -23.296875 23.113281 -23.6875 23.71875 -24.0625 C 24.320312 -24.4375 24.625 -24.625 24.625 -24.625 L 24.921875 -24.859375 C 25.179688 -25.054688 25.757812 -25.378906 26.65625 -25.828125 C 27.5625 -26.285156 28.488281 -26.75 29.4375 -27.21875 C 30.394531 -27.695312 31.023438 -27.988281 31.328125 -28.09375 L 33.515625 -28.921875 L 34.9375 -29.515625 L 35.25 -29.671875 L 36.078125 -29.90625 C 36.171875 -29.945312 36.289062 -29.992188 36.4375 -30.046875 C 36.59375 -30.097656 36.695312 -30.148438 36.75 -30.203125 C 36.851562 -30.296875 36.929688 -30.320312 36.984375 -30.28125 C 36.984375 -30.226562 37.296875 -30.300781 37.921875 -30.5 C 38.546875 -30.695312 39.035156 -30.847656 39.390625 -30.953125 L 39.6875 -31.109375 L 40.4375 -31.328125 C 40.789062 -31.429688 41.101562 -31.59375 41.375 -31.8125 C 41.65625 -32.039062 42.398438 -32.785156 43.609375 -34.046875 C 44.910156 -35.347656 45.785156 -36.222656 46.234375 -36.671875 C 46.691406 -37.128906 46.945312 -37.457031 47 -37.65625 C 47.144531 -37.707031 47.269531 -37.832031 47.375 -38.03125 C 47.625 -38.226562 47.972656 -38.582031 48.421875 -39.09375 C 48.578125 -39.238281 48.953125 -39.632812 49.546875 -40.28125 C 50.148438 -40.9375 50.804688 -41.617188 51.515625 -42.328125 C 52.566406 -43.378906 53.269531 -44.09375 53.625 -44.46875 C 53.976562 -44.84375 54.101562 -45.054688 54 -45.109375 C 53.75 -45.460938 54.203125 -45.890625 55.359375 -46.390625 C 55.609375 -46.492188 55.921875 -46.707031 56.296875 -47.03125 C 56.671875 -47.351562 56.984375 -47.664062 57.234375 -47.96875 C 57.285156 -48.175781 57.382812 -48.28125 57.53125 -48.28125 C 57.53125 -48.28125 57.582031 -48.316406 57.6875 -48.390625 C 57.789062 -48.460938 57.890625 -48.550781 57.984375 -48.65625 L 60.40625 -50.84375 L 60.03125 -50.90625 C 59.976562 -50.957031 59.785156 -50.984375 59.453125 -50.984375 C 59.128906 -50.984375 58.816406 -50.957031 58.515625 -50.90625 L 57.09375 -50.84375 L 39.015625 -50.53125 L 36 -50.390625 C 35.644531 -50.285156 35.367188 -50.285156 35.171875 -50.390625 C 34.921875 -50.390625 34.71875 -50.363281 34.5625 -50.3125 C 34.3125 -50.257812 33.859375 -50.191406 33.203125 -50.109375 C 32.554688 -50.035156 31.984375 -49.976562 31.484375 -49.9375 C 30.929688 -49.9375 30.550781 -49.882812 30.34375 -49.78125 C 30.300781 -49.78125 30.113281 -49.753906 29.78125 -49.703125 C 29.457031 -49.648438 29.09375 -49.601562 28.6875 -49.5625 C 28.289062 -49.507812 27.890625 -49.46875 27.484375 -49.4375 C 27.085938 -49.414062 26.765625 -49.351562 26.515625 -49.25 L 23.953125 -48.796875 C 22.046875 -48.398438 20.515625 -47.925781 19.359375 -47.375 C 18.859375 -47.125 18.53125 -47 18.375 -47 C 18.320312 -47 17.941406 -46.796875 17.234375 -46.390625 C 16.535156 -45.992188 16.085938 -45.71875 15.890625 -45.5625 C 15.585938 -45.257812 15.410156 -44.984375 15.359375 -44.734375 C 15.265625 -44.335938 15.113281 -44.1875 14.90625 -44.28125 C 14.757812 -44.332031 14.6875 -44.546875 14.6875 -44.921875 C 14.6875 -45.296875 14.757812 -45.5625 14.90625 -45.71875 C 15.113281 -45.96875 15.628906 -46.34375 16.453125 -46.84375 C 17.285156 -47.34375 18.101562 -47.742188 18.90625 -48.046875 C 19.300781 -48.242188 19.960938 -48.476562 20.890625 -48.75 C 21.828125 -49.03125 22.445312 -49.195312 22.75 -49.25 L 23.5 -49.40625 C 24.550781 -49.65625 25.890625 -49.890625 27.515625 -50.109375 C 29.148438 -50.335938 31.023438 -50.554688 33.140625 -50.765625 C 33.785156 -50.859375 34.632812 -50.941406 35.6875 -51.015625 C 36.75 -51.097656 38.109375 -51.164062 39.765625 -51.21875 L 42.09375 -51.28125 L 55.65625 -51.515625 L 58.296875 -51.671875 C 58.597656 -51.671875 59 -51.679688 59.5 -51.703125 C 60 -51.722656 60.425781 -51.757812 60.78125 -51.8125 L 62.28125 -51.96875 C 62.53125 -52.019531 62.707031 -51.867188 62.8125 -51.515625 C 62.8125 -51.066406 62.484375 -50.738281 61.828125 -50.53125 C 61.578125 -50.4375 61.273438 -50.257812 60.921875 -50 L 60.46875 -49.5625 C 60.425781 -49.5625 60.34375 -49.492188 60.21875 -49.359375 C 60.09375 -49.234375 59.925781 -49.097656 59.71875 -48.953125 L 58.75 -48.046875 C 58.5 -47.847656 58.394531 -47.722656 58.4375 -47.671875 C 58.4375 -47.671875 58.625 -47.71875 59 -47.8125 C 59.382812 -47.914062 59.675781 -48.019531 59.875 -48.125 L 61.75 -48.65625 L 61.984375 -48.734375 L 62.0625 -48.796875 L 62.515625 -48.796875 L 63.859375 -49.109375 C 64.410156 -49.203125 65.015625 -49.285156 65.671875 -49.359375 C 66.328125 -49.441406 66.78125 -49.429688 67.03125 -49.328125 C 67.425781 -49.222656 67.585938 -49.007812 67.515625 -48.6875 C 67.441406 -48.363281 67.179688 -48.125 66.734375 -47.96875 C 66.472656 -47.925781 65.988281 -47.726562 65.28125 -47.375 C 64.582031 -47.019531 63.921875 -46.675781 63.296875 -46.34375 C 62.671875 -46.019531 62.257812 -45.785156 62.0625 -45.640625 C 61.90625 -45.484375 61.800781 -45.40625 61.75 -45.40625 C 61.707031 -45.40625 61.457031 -45.304688 61 -45.109375 C 60.550781 -44.910156 60.097656 -44.707031 59.640625 -44.5 C 59.191406 -44.300781 58.914062 -44.15625 58.8125 -44.0625 C 58.613281 -43.957031 58.488281 -43.90625 58.4375 -43.90625 C 58.4375 -43.957031 58.425781 -43.984375 58.40625 -43.984375 C 58.382812 -43.984375 58.375 -43.957031 58.375 -43.90625 C 58.375 -43.800781 58.296875 -43.75 58.140625 -43.75 C 58.085938 -43.75 57.960938 -43.703125 57.765625 -43.609375 C 57.660156 -43.503906 57.734375 -43.425781 57.984375 -43.375 C 58.085938 -43.332031 58.25 -43.285156 58.46875 -43.234375 C 58.695312 -43.179688 58.890625 -43.101562 59.046875 -43 C 59.441406 -42.800781 59.71875 -42.523438 59.875 -42.171875 C 60.175781 -41.566406 60.238281 -40.890625 60.0625 -40.140625 C 59.882812 -39.390625 59.394531 -38.359375 58.59375 -37.046875 C 58.09375 -36.242188 57.78125 -35.742188 57.65625 -35.546875 C 57.53125 -35.347656 57.488281 -35.195312 57.53125 -35.09375 C 57.53125 -34.988281 57.507812 -34.9375 57.46875 -34.9375 C 57.363281 -34.9375 57.3125 -34.914062 57.3125 -34.875 C 57.207031 -34.769531 57.234375 -34.71875 57.390625 -34.71875 C 57.484375 -34.820312 57.910156 -34.875 58.671875 -34.875 C 59.773438 -34.96875 60.765625 -35.023438 61.640625 -35.046875 C 62.523438 -35.078125 63.039062 -35.117188 63.1875 -35.171875 C 63.488281 -35.273438 64.023438 -35.335938 64.796875 -35.359375 C 65.578125 -35.378906 66.359375 -35.398438 67.140625 -35.421875 C 67.921875 -35.453125 68.410156 -35.441406 68.609375 -35.390625 C 68.804688 -35.347656 68.96875 -35.238281 69.09375 -35.0625 C 69.21875 -34.882812 69.234375 -34.742188 69.140625 -34.640625 C 68.929688 -34.335938 68.679688 -34.085938 68.390625 -33.890625 C 68.285156 -33.835938 68.15625 -33.847656 68 -33.921875 C 67.851562 -34.003906 67.78125 -34.117188 67.78125 -34.265625 C 67.78125 -34.421875 67.601562 -34.5 67.25 -34.5 C 67.050781 -34.539062 66.597656 -34.550781 65.890625 -34.53125 C 65.191406 -34.507812 64.476562 -34.5 63.75 -34.5 C 63.019531 -34.5 62.484375 -34.472656 62.140625 -34.421875 C 61.878906 -34.367188 61.445312 -34.328125 60.84375 -34.296875 C 60.25 -34.273438 59.703125 -34.238281 59.203125 -34.1875 C 58.898438 -34.1875 58.320312 -34.113281 57.46875 -33.96875 C 57.113281 -33.914062 56.859375 -33.835938 56.703125 -33.734375 C 56.554688 -33.640625 56.359375 -33.441406 56.109375 -33.140625 C 55.910156 -32.835938 55.597656 -32.410156 55.171875 -31.859375 C 54.742188 -31.304688 54.476562 -30.976562 54.375 -30.875 L 54.15625 -30.65625 C 54.101562 -30.550781 53.863281 -30.25 53.4375 -29.75 C 53.007812 -29.25 52.546875 -28.722656 52.046875 -28.171875 C 50.535156 -26.554688 49.078125 -25.097656 47.671875 -23.796875 C 46.265625 -22.492188 44.910156 -21.316406 43.609375 -20.265625 L 42.25 -19.203125 L 41.796875 -18.828125 C 41.742188 -18.773438 41.691406 -18.722656 41.640625 -18.671875 C 41.597656 -18.628906 41.578125 -18.609375 41.578125 -18.609375 L 40.890625 -18.15625 L 39.46875 -17.09375 C 38.8125 -16.644531 38.484375 -16.394531 38.484375 -16.34375 C 38.429688 -16.238281 38.359375 -16.1875 38.265625 -16.1875 C 38.265625 -16.1875 37.9375 -15.960938 37.28125 -15.515625 L 36.21875 -14.765625 L 35.625 -14.3125 L 34.640625 -13.625 C 34.140625 -13.375 33.597656 -13.0625 33.015625 -12.6875 C 32.441406 -12.3125 32.15625 -12.097656 32.15625 -12.046875 C 32.15625 -11.992188 31.988281 -11.851562 31.65625 -11.625 C 31.332031 -11.40625 31.007812 -11.191406 30.6875 -10.984375 C 30.363281 -10.785156 30.175781 -10.6875 30.125 -10.6875 L 29.515625 -10.25 C 29.367188 -10.144531 29.191406 -10.03125 28.984375 -9.90625 C 28.785156 -9.78125 28.640625 -9.691406 28.546875 -9.640625 L 27.9375 -9.265625 C 27.738281 -9.066406 27.488281 -8.890625 27.1875 -8.734375 L 26.359375 -8.28125 L 25.453125 -7.75 L 24.25 -7.078125 C 23.894531 -6.878906 23.226562 -6.578125 22.25 -6.171875 C 21.269531 -5.773438 20.503906 -5.5 19.953125 -5.34375 L 18.828125 -5.046875 C 18.421875 -4.890625 17.789062 -4.757812 16.9375 -4.65625 C 16.09375 -4.5625 15.441406 -4.515625 14.984375 -4.515625 Z M 53.390625 -42.625 C 53.492188 -42.625 53.785156 -42.695312 54.265625 -42.84375 C 54.742188 -43 55.082031 -43.101562 55.28125 -43.15625 C 55.53125 -43.257812 56.15625 -43.5625 57.15625 -44.0625 C 58.164062 -44.5625 59.019531 -44.988281 59.71875 -45.34375 C 60.175781 -45.539062 60.550781 -45.710938 60.84375 -45.859375 C 61.144531 -46.015625 61.320312 -46.09375 61.375 -46.09375 C 61.425781 -46.09375 61.675781 -46.21875 62.125 -46.46875 C 62.582031 -46.71875 63.035156 -46.992188 63.484375 -47.296875 L 64.921875 -47.96875 L 66.125 -48.65625 L 65.515625 -48.65625 L 64.765625 -48.5 L 63.859375 -48.421875 L 61.53125 -47.828125 L 60.546875 -47.515625 C 60.046875 -47.367188 59.492188 -47.179688 58.890625 -46.953125 C 58.285156 -46.734375 57.859375 -46.570312 57.609375 -46.46875 L 56.9375 -46.171875 C 56.832031 -46.171875 56.628906 -46.019531 56.328125 -45.71875 L 55.734375 -45.03125 C 54.023438 -43.425781 53.242188 -42.625 53.390625 -42.625 Z M 43.609375 -32.3125 L 44.28125 -32.390625 C 45.03125 -32.484375 45.507812 -32.582031 45.71875 -32.6875 L 46.09375 -32.765625 L 51.359375 -33.734375 L 53.09375 -34.046875 L 55.578125 -34.421875 C 55.679688 -34.472656 55.859375 -34.671875 56.109375 -35.015625 C 56.359375 -35.367188 56.582031 -35.722656 56.78125 -36.078125 L 57.390625 -37.28125 C 57.484375 -37.53125 57.582031 -37.742188 57.6875 -37.921875 C 57.789062 -38.097656 57.84375 -38.210938 57.84375 -38.265625 C 57.84375 -38.304688 57.890625 -38.378906 57.984375 -38.484375 C 58.085938 -38.484375 58.140625 -38.535156 58.140625 -38.640625 C 58.140625 -38.734375 58.238281 -38.984375 58.4375 -39.390625 C 58.738281 -39.992188 58.890625 -40.421875 58.890625 -40.671875 L 58.96875 -41.125 C 58.96875 -41.519531 58.789062 -41.894531 58.4375 -42.25 C 58.238281 -42.394531 57.773438 -42.46875 57.046875 -42.46875 C 56.316406 -42.46875 55.753906 -42.394531 55.359375 -42.25 L 54.90625 -42.09375 C 54.707031 -42.09375 54.351562 -41.992188 53.84375 -41.796875 C 53.34375 -41.597656 52.863281 -41.394531 52.40625 -41.1875 C 51.957031 -40.988281 51.710938 -40.84375 51.671875 -40.75 C 51.671875 -40.644531 51.59375 -40.59375 51.4375 -40.59375 C 51.238281 -40.59375 50.507812 -39.890625 49.25 -38.484375 C 49.101562 -38.285156 48.773438 -37.921875 48.265625 -37.390625 C 47.765625 -36.867188 47.210938 -36.289062 46.609375 -35.65625 C 46.015625 -35.03125 45.453125 -34.453125 44.921875 -33.921875 C 44.398438 -33.398438 44.0625 -33.0625 43.90625 -32.90625 C 43.65625 -32.65625 43.53125 -32.503906 43.53125 -32.453125 C 43.425781 -32.253906 43.453125 -32.207031 43.609375 -32.3125 Z M 16.34375 -5.125 L 17.46875 -5.34375 C 18.175781 -5.445312 18.96875 -5.648438 19.84375 -5.953125 C 20.71875 -6.253906 21.457031 -6.53125 22.0625 -6.78125 L 22.671875 -7.078125 C 22.722656 -7.078125 22.875 -7.125 23.125 -7.21875 C 23.375 -7.320312 23.5 -7.398438 23.5 -7.453125 L 24.703125 -8.0625 C 25.003906 -8.207031 25.28125 -8.34375 25.53125 -8.46875 C 25.78125 -8.59375 25.929688 -8.679688 25.984375 -8.734375 C 26.128906 -8.890625 26.335938 -9.050781 26.609375 -9.21875 C 26.890625 -9.394531 27.054688 -9.484375 27.109375 -9.484375 C 27.160156 -9.484375 27.1875 -9.507812 27.1875 -9.5625 C 27.1875 -9.664062 27.257812 -9.71875 27.40625 -9.71875 L 27.796875 -9.9375 L 28.765625 -10.546875 L 29.59375 -11.140625 L 31.328125 -12.28125 L 32.3125 -12.953125 L 33.140625 -13.484375 C 33.191406 -13.484375 33.300781 -13.546875 33.46875 -13.671875 C 33.644531 -13.796875 33.859375 -13.929688 34.109375 -14.078125 L 37.359375 -16.421875 L 39.015625 -17.546875 L 40.515625 -18.75 L 41.34375 -19.4375 C 41.75 -19.6875 42.316406 -20.109375 43.046875 -20.703125 C 43.773438 -21.304688 44.285156 -21.734375 44.578125 -21.984375 L 45.03125 -22.4375 C 45.082031 -22.4375 45.445312 -22.765625 46.125 -23.421875 C 46.800781 -24.078125 47.578125 -24.867188 48.453125 -25.796875 C 49.335938 -26.722656 50.144531 -27.570312 50.875 -28.34375 C 51.601562 -29.125 52.039062 -29.617188 52.1875 -29.828125 L 52.5 -30.125 L 54.453125 -32.53125 L 54.75 -32.984375 L 55.125 -33.515625 C 55.175781 -33.566406 55.203125 -33.640625 55.203125 -33.734375 C 55.097656 -33.785156 54.019531 -33.632812 51.96875 -33.28125 L 50.3125 -33.0625 L 47.671875 -32.53125 C 47.222656 -32.476562 46.742188 -32.390625 46.234375 -32.265625 C 45.734375 -32.140625 45.4375 -32.054688 45.34375 -32.015625 C 45.238281 -31.910156 44.8125 -31.78125 44.0625 -31.625 L 42.703125 -31.25 C 42.453125 -31.195312 42.175781 -31.03125 41.875 -30.75 C 41.570312 -30.476562 40.84375 -29.691406 39.6875 -28.390625 C 39.1875 -27.890625 38.796875 -27.460938 38.515625 -27.109375 C 38.242188 -26.753906 37.753906 -26.128906 37.046875 -25.234375 C 36.703125 -24.773438 36.46875 -24.46875 36.34375 -24.3125 C 36.21875 -24.164062 35.898438 -23.816406 35.390625 -23.265625 L 30.5 -17.921875 L 29.90625 -17.328125 C 29.800781 -17.222656 29.644531 -17.054688 29.4375 -16.828125 C 29.238281 -16.609375 28.890625 -16.222656 28.390625 -15.671875 C 28.191406 -15.460938 27.976562 -15.421875 27.75 -15.546875 C 27.519531 -15.671875 27.40625 -15.910156 27.40625 -16.265625 C 27.40625 -16.367188 27.519531 -16.546875 27.75 -16.796875 C 27.976562 -17.046875 28.242188 -17.320312 28.546875 -17.625 C 29.242188 -18.320312 29.59375 -18.75 29.59375 -18.90625 C 29.695312 -18.851562 29.945312 -19.050781 30.34375 -19.5 C 30.75 -19.957031 31.28125 -20.535156 31.9375 -21.234375 L 33.734375 -23.125 C 34.140625 -23.519531 34.492188 -23.894531 34.796875 -24.25 C 35.097656 -24.601562 35.296875 -24.851562 35.390625 -25 L 35.921875 -25.53125 C 35.921875 -25.53125 36.070312 -25.734375 36.375 -26.140625 L 36.828125 -26.734375 L 37.5 -27.5625 L 39.09375 -29.296875 C 39.34375 -29.597656 39.566406 -29.859375 39.765625 -30.078125 C 39.960938 -30.304688 40.035156 -30.421875 39.984375 -30.421875 C 39.984375 -30.578125 39.859375 -30.578125 39.609375 -30.421875 L 38.78125 -30.203125 L 37.125 -29.671875 C 36.925781 -29.617188 36.578125 -29.515625 36.078125 -29.359375 C 35.578125 -29.210938 35.113281 -29.050781 34.6875 -28.875 C 34.257812 -28.707031 33.992188 -28.597656 33.890625 -28.546875 C 33.835938 -28.492188 33.738281 -28.46875 33.59375 -28.46875 C 33.539062 -28.46875 33.238281 -28.34375 32.6875 -28.09375 C 32.132812 -27.84375 31.707031 -27.640625 31.40625 -27.484375 C 31.207031 -27.390625 31.082031 -27.34375 31.03125 -27.34375 C 30.976562 -27.34375 30.710938 -27.238281 30.234375 -27.03125 C 29.753906 -26.832031 29.316406 -26.632812 28.921875 -26.4375 C 26.859375 -25.332031 25.78125 -24.726562 25.6875 -24.625 C 25.632812 -24.570312 25.566406 -24.519531 25.484375 -24.46875 C 25.410156 -24.425781 25.351562 -24.40625 25.3125 -24.40625 C 25.15625 -24.40625 24.828125 -24.203125 24.328125 -23.796875 L 23.34375 -23.203125 C 23.289062 -23.203125 22.925781 -22.972656 22.25 -22.515625 C 21.570312 -22.066406 20.878906 -21.585938 20.171875 -21.078125 C 19.472656 -20.578125 19.050781 -20.253906 18.90625 -20.109375 L 18.375 -19.65625 C 18.269531 -19.601562 17.367188 -18.898438 15.671875 -17.546875 C 15.160156 -17.148438 14.640625 -16.710938 14.109375 -16.234375 C 13.585938 -15.753906 13.328125 -15.488281 13.328125 -15.4375 C 13.328125 -15.332031 13.28125 -15.28125 13.1875 -15.28125 C 13.132812 -15.28125 12.84375 -15.015625 12.3125 -14.484375 C 11.78125 -13.960938 11.226562 -13.390625 10.65625 -12.765625 C 10.082031 -12.140625 9.691406 -11.703125 9.484375 -11.453125 C 8.535156 -10.140625 8.085938 -9.007812 8.140625 -8.0625 C 8.140625 -7.257812 8.363281 -6.582031 8.8125 -6.03125 C 8.914062 -5.875 9.15625 -5.71875 9.53125 -5.5625 C 9.90625 -5.414062 10.269531 -5.296875 10.625 -5.203125 C 10.925781 -5.148438 11.488281 -5.109375 12.3125 -5.078125 C 13.144531 -5.054688 13.972656 -5.046875 14.796875 -5.046875 C 15.628906 -5.046875 16.144531 -5.070312 16.34375 -5.125 Z M 16.34375 -5.125 "/></g></g></g><g fill="#000000" fill-opacity="1"><g transform="translate(173.23708, 74.937188)"><g><path d="M -0.90625 -20.484375 C -1.207031 -20.429688 -1.394531 -20.414062 -1.46875 -20.4375 C -1.539062 -20.46875 -1.628906 -20.5625 -1.734375 -20.71875 C -1.929688 -21.007812 -1.890625 -21.429688 -1.609375 -21.984375 C -1.335938 -22.535156 -1.148438 -22.863281 -1.046875 -22.96875 L 0.21875 -24.25 L 0.828125 -24.484375 L 0.984375 -24.40625 L 1.953125 -24.328125 C 2.203125 -24.328125 2.378906 -24.226562 2.484375 -24.03125 C 2.535156 -23.976562 2.5625 -23.875 2.5625 -23.71875 L 2.5625 -23.046875 C 2.757812 -22.992188 2.957031 -22.914062 3.15625 -22.8125 C 3.613281 -22.664062 4.164062 -22.59375 4.8125 -22.59375 C 6.125 -22.59375 7.21875 -22.71875 8.09375 -22.96875 C 8.976562 -23.21875 9.769531 -23.492188 10.46875 -23.796875 C 10.613281 -23.953125 10.738281 -23.925781 10.84375 -23.71875 C 10.945312 -23.570312 10.894531 -23.445312 10.6875 -23.34375 L 10.015625 -23.046875 C 9.210938 -22.691406 8.304688 -22.4375 7.296875 -22.28125 C 6.296875 -22.132812 5.519531 -22.0625 4.96875 -22.0625 C 3.96875 -22.0625 3.085938 -22.140625 2.328125 -22.296875 L 2.109375 -22.21875 C 1.910156 -21.914062 1.492188 -21.550781 0.859375 -21.125 C 0.234375 -20.695312 -0.351562 -20.484375 -0.90625 -20.484375 Z M 1.5 -23.421875 C 1.601562 -23.367188 1.65625 -23.394531 1.65625 -23.5 C 1.601562 -23.5 1.5625 -23.507812 1.53125 -23.53125 C 1.507812 -23.5625 1.476562 -23.578125 1.4375 -23.578125 C 1.28125 -23.578125 1.300781 -23.523438 1.5 -23.421875 Z M -0.671875 -21.15625 C -0.628906 -21.15625 -0.476562 -21.164062 -0.21875 -21.1875 C 0.03125 -21.21875 0.328125 -21.382812 0.671875 -21.6875 C 1.179688 -22.09375 1.421875 -22.34375 1.390625 -22.4375 C 1.367188 -22.539062 1.332031 -22.617188 1.28125 -22.671875 L 0.828125 -22.890625 L 0.53125 -23.125 C 0.425781 -23.125 0.3125 -23.082031 0.1875 -23 C 0.0625 -22.925781 -0.125 -22.738281 -0.375 -22.4375 C -0.726562 -21.988281 -0.878906 -21.660156 -0.828125 -21.453125 C -0.773438 -21.253906 -0.722656 -21.15625 -0.671875 -21.15625 Z M -0.671875 -21.15625 "/></g></g></g><g fill="#000000" fill-opacity="1"><g transform="translate(183.780593, 74.937188)"><g><path d="M -1.578125 -20.40625 L -1.8125 -20.78125 C -1.863281 -20.988281 -1.875 -21.191406 -1.84375 -21.390625 C -1.820312 -21.585938 -1.785156 -21.765625 -1.734375 -21.921875 C -1.628906 -22.265625 -1.265625 -22.75 -0.640625 -23.375 C -0.015625 -24.007812 0.421875 -24.476562 0.671875 -24.78125 C 0.921875 -24.976562 1.097656 -25.023438 1.203125 -24.921875 C 1.453125 -24.828125 1.378906 -24.53125 0.984375 -24.03125 C 0.628906 -23.625 0.175781 -23.09375 -0.375 -22.4375 C -0.925781 -21.789062 -1.175781 -21.390625 -1.125 -21.234375 C -1.03125 -21.035156 -0.753906 -21.0625 -0.296875 -21.3125 C 0.148438 -21.5625 0.632812 -21.910156 1.15625 -22.359375 C 1.6875 -22.816406 2.128906 -23.242188 2.484375 -23.640625 L 2.640625 -23.875 L 3.09375 -24.328125 L 3.234375 -24.546875 C 3.484375 -24.796875 3.710938 -24.898438 3.921875 -24.859375 C 4.222656 -24.753906 4.207031 -24.488281 3.875 -24.0625 C 3.550781 -23.632812 3.210938 -23.21875 2.859375 -22.8125 C 2.253906 -22.0625 2.054688 -21.535156 2.265625 -21.234375 C 2.304688 -21.035156 2.453125 -20.972656 2.703125 -21.046875 C 2.960938 -21.117188 3.09375 -21.15625 3.09375 -21.15625 C 3.644531 -21.257812 4.472656 -21.535156 5.578125 -21.984375 C 6.679688 -22.441406 8.0625 -23.019531 9.71875 -23.71875 L 9.859375 -23.796875 L 10.015625 -23.796875 L 10.171875 -23.71875 C 10.265625 -23.664062 10.300781 -23.601562 10.28125 -23.53125 C 10.257812 -23.457031 10.195312 -23.394531 10.09375 -23.34375 L 9.1875 -22.890625 L 5.875 -21.390625 C 5.164062 -21.085938 4.523438 -20.847656 3.953125 -20.671875 C 3.378906 -20.492188 3.09375 -20.40625 3.09375 -20.40625 L 2.859375 -20.40625 C 2.210938 -20.257812 1.8125 -20.335938 1.65625 -20.640625 C 1.507812 -20.941406 1.457031 -21.265625 1.5 -21.609375 L 1.5 -21.921875 L 1.4375 -21.84375 L 0.90625 -21.390625 C 0.707031 -21.234375 0.394531 -21.03125 -0.03125 -20.78125 C -0.457031 -20.53125 -0.820312 -20.40625 -1.125 -20.40625 Z M -1.578125 -20.40625 "/></g></g></g><g fill="#000000" fill-opacity="1"><g transform="translate(193.796927, 74.937188)"><g><path d="M 33.96875 -35.703125 C 34.414062 -35.453125 34.289062 -35.148438 33.59375 -34.796875 L 32.84375 -34.5 C 32.789062 -34.445312 32.6875 -34.492188 32.53125 -34.640625 C 32.4375 -34.796875 32.4375 -34.921875 32.53125 -35.015625 C 32.632812 -35.171875 32.660156 -35.257812 32.609375 -35.28125 C 32.554688 -35.3125 32.332031 -35.328125 31.9375 -35.328125 C 31.726562 -35.367188 31.472656 -35.398438 31.171875 -35.421875 C 30.878906 -35.453125 30.601562 -35.492188 30.34375 -35.546875 C 30 -35.597656 29.160156 -35.660156 27.828125 -35.734375 C 26.492188 -35.804688 24.960938 -35.867188 23.234375 -35.921875 C 21.503906 -35.972656 19.8125 -36.023438 18.15625 -36.078125 C 16.5 -36.128906 15.117188 -36.15625 14.015625 -36.15625 L 13.703125 -36.15625 C 13.609375 -36.15625 13.445312 -36.164062 13.21875 -36.1875 C 12.988281 -36.207031 12.722656 -36.195312 12.421875 -36.15625 L 12.046875 -35.921875 C 11.992188 -35.828125 11.90625 -35.726562 11.78125 -35.625 C 11.65625 -35.519531 11.546875 -35.394531 11.453125 -35.25 L 10.765625 -34.5625 C 10.566406 -34.257812 10.316406 -33.96875 10.015625 -33.6875 C 9.710938 -33.414062 9.363281 -33.054688 8.96875 -32.609375 L 7.6875 -31.25 C 7.382812 -30.851562 7.109375 -30.53125 6.859375 -30.28125 C 6.753906 -30.175781 6.585938 -30 6.359375 -29.75 C 6.140625 -29.5 5.90625 -29.25 5.65625 -29 C 5 -28.238281 4.492188 -27.644531 4.140625 -27.21875 C 3.785156 -26.789062 3.4375 -26.378906 3.09375 -25.984375 L 2.1875 -25 L 1.5 -24.171875 L -0.53125 -21.921875 L -3.015625 -19.046875 L -4.21875 -17.625 C -5.019531 -16.71875 -5.921875 -15.632812 -6.921875 -14.375 C -7.929688 -13.125 -8.875 -11.910156 -9.75 -10.734375 C -10.632812 -9.554688 -11.328125 -8.613281 -11.828125 -7.90625 C -12.078125 -7.507812 -12.328125 -7.046875 -12.578125 -6.515625 C -12.828125 -5.984375 -12.976562 -5.617188 -13.03125 -5.421875 C -13.03125 -5.171875 -12.929688 -5.046875 -12.734375 -5.046875 C -12.523438 -4.992188 -12.472656 -4.894531 -12.578125 -4.75 C -12.628906 -4.644531 -12.804688 -4.59375 -13.109375 -4.59375 C -13.304688 -4.644531 -13.457031 -4.847656 -13.5625 -5.203125 C -13.601562 -5.503906 -13.5 -5.976562 -13.25 -6.625 C -13.15625 -6.875 -13.066406 -7.097656 -12.984375 -7.296875 C -12.910156 -7.503906 -12.875 -7.582031 -12.875 -7.53125 C -12.820312 -7.53125 -12.796875 -7.601562 -12.796875 -7.75 C -12.796875 -7.75 -12.785156 -7.757812 -12.765625 -7.78125 C -12.742188 -7.8125 -12.734375 -7.851562 -12.734375 -7.90625 C -12.628906 -7.851562 -12.550781 -7.929688 -12.5 -8.140625 C -12.445312 -8.234375 -12.421875 -8.359375 -12.421875 -8.515625 L -12.421875 -8.65625 C -12.328125 -8.601562 -11.878906 -9.132812 -11.078125 -10.25 L -7.984375 -14.390625 L -6.09375 -16.71875 C -5.695312 -17.21875 -5.332031 -17.664062 -5 -18.0625 C -4.675781 -18.46875 -4.488281 -18.695312 -4.4375 -18.75 C -4.34375 -18.800781 -4.207031 -18.925781 -4.03125 -19.125 C -3.851562 -19.332031 -3.664062 -19.5625 -3.46875 -19.8125 C -2.863281 -20.613281 -2.4375 -21.148438 -2.1875 -21.421875 C -1.9375 -21.703125 -1.785156 -21.84375 -1.734375 -21.84375 C -1.679688 -21.84375 -1.582031 -21.96875 -1.4375 -22.21875 L -0.828125 -22.96875 L -0.21875 -23.640625 C 0.582031 -24.597656 1.15625 -25.273438 1.5 -25.671875 C 1.851562 -26.078125 2.128906 -26.378906 2.328125 -26.578125 C 2.734375 -26.984375 2.9375 -27.210938 2.9375 -27.265625 C 2.9375 -27.210938 3.132812 -27.425781 3.53125 -27.90625 C 3.9375 -28.382812 4.140625 -28.625 4.140625 -28.625 C 4.390625 -28.96875 4.84375 -29.515625 5.5 -30.265625 C 6.15625 -31.023438 6.84375 -31.804688 7.5625 -32.609375 C 8.289062 -33.410156 8.832031 -33.988281 9.1875 -34.34375 L 10.09375 -35.328125 L 10.3125 -35.625 L 10.546875 -35.78125 C 10.597656 -35.875 10.644531 -35.945312 10.6875 -36 C 10.738281 -36.050781 10.789062 -36.101562 10.84375 -36.15625 C 10.039062 -36.15625 9.113281 -36.15625 8.0625 -36.15625 C 7.007812 -36.15625 6.304688 -36.128906 5.953125 -36.078125 L 3.46875 -35.921875 L 1.4375 -35.84375 L -0.453125 -35.703125 C -1.359375 -35.648438 -2.195312 -35.582031 -2.96875 -35.5 C -3.75 -35.425781 -4.191406 -35.367188 -4.296875 -35.328125 C -4.796875 -35.222656 -5.347656 -35.144531 -5.953125 -35.09375 C -6.554688 -35.039062 -6.878906 -35.039062 -6.921875 -35.09375 C -7.179688 -35.34375 -6.957031 -35.570312 -6.25 -35.78125 C -6.050781 -35.820312 -5.585938 -35.878906 -4.859375 -35.953125 C -4.128906 -36.035156 -3.363281 -36.113281 -2.5625 -36.1875 C -1.757812 -36.257812 -1.15625 -36.296875 -0.75 -36.296875 L 0.90625 -36.453125 L 11.515625 -36.671875 L 11.828125 -36.984375 L 12.421875 -37.65625 L 12.65625 -37.875 C 12.75 -37.976562 12.984375 -38.191406 13.359375 -38.515625 C 13.742188 -38.847656 14.109375 -39.1875 14.453125 -39.53125 C 14.804688 -39.882812 15.007812 -40.085938 15.0625 -40.140625 C 15.113281 -40.242188 15.488281 -40.570312 16.1875 -41.125 L 16.875 -41.71875 C 16.925781 -41.820312 17.113281 -42 17.4375 -42.25 C 17.757812 -42.5 17.945312 -42.625 18 -42.625 C 18.144531 -42.625 18.242188 -42.550781 18.296875 -42.40625 C 18.398438 -42.195312 18.375 -42.019531 18.21875 -41.875 L 17.921875 -41.5 L 17.171875 -40.890625 C 16.921875 -40.691406 16.582031 -40.390625 16.15625 -39.984375 C 15.726562 -39.585938 15.4375 -39.289062 15.28125 -39.09375 C 14.988281 -38.738281 14.691406 -38.4375 14.390625 -38.1875 C 14.179688 -37.976562 13.925781 -37.722656 13.625 -37.421875 C 13.332031 -37.128906 13.132812 -36.90625 13.03125 -36.75 L 14.453125 -36.75 L 16.5625 -36.671875 C 16.914062 -36.671875 17.796875 -36.644531 19.203125 -36.59375 C 20.609375 -36.550781 22.164062 -36.488281 23.875 -36.40625 C 25.582031 -36.332031 27.140625 -36.269531 28.546875 -36.21875 C 29.953125 -36.175781 30.851562 -36.128906 31.25 -36.078125 C 32.101562 -36.023438 32.71875 -35.972656 33.09375 -35.921875 C 33.476562 -35.867188 33.769531 -35.796875 33.96875 -35.703125 Z M 33.96875 -35.703125 "/></g></g></g><g fill="#000000" fill-opacity="1"><g transform="translate(200.198345, 74.937188)"><g><path d="M 3.15625 -25.90625 C 3.007812 -25.851562 2.859375 -25.898438 2.703125 -26.046875 C 2.554688 -26.203125 2.535156 -26.304688 2.640625 -26.359375 C 2.734375 -26.460938 2.78125 -26.613281 2.78125 -26.8125 C 2.882812 -27.3125 3.113281 -27.4375 3.46875 -27.1875 C 3.613281 -27.039062 3.6875 -26.914062 3.6875 -26.8125 C 3.738281 -26.65625 3.703125 -26.476562 3.578125 -26.28125 C 3.453125 -26.082031 3.3125 -25.957031 3.15625 -25.90625 Z M -1.125 -20.484375 C -1.882812 -20.429688 -2.265625 -20.632812 -2.265625 -21.09375 L -2.265625 -21.3125 C -2.265625 -21.96875 -1.609375 -22.847656 -0.296875 -23.953125 C 0.347656 -24.398438 0.773438 -24.578125 0.984375 -24.484375 C 1.328125 -24.328125 1.070312 -23.898438 0.21875 -23.203125 L -1.046875 -22.140625 C -1.253906 -21.890625 -1.359375 -21.585938 -1.359375 -21.234375 C -1.203125 -21.179688 -1.007812 -21.179688 -0.78125 -21.234375 C -0.5625 -21.285156 -0.453125 -21.3125 -0.453125 -21.3125 C 0.0976562 -21.414062 0.925781 -21.691406 2.03125 -22.140625 C 3.132812 -22.585938 4.515625 -23.164062 6.171875 -23.875 L 6.328125 -23.953125 L 6.484375 -23.953125 L 6.625 -23.875 C 6.875 -23.769531 6.847656 -23.617188 6.546875 -23.421875 L 5.65625 -23.046875 L 2.328125 -21.546875 C 1.734375 -21.285156 1.109375 -21.054688 0.453125 -20.859375 C -0.203125 -20.660156 -0.726562 -20.535156 -1.125 -20.484375 Z M -1.125 -20.484375 "/></g></g></g><g fill="#000000" fill-opacity="1"><g transform="translate(206.524451, 74.937188)"><g><path d="M -20.5625 1.046875 C -20.914062 0.753906 -20.585938 0.00390625 -19.578125 -1.203125 L -18.609375 -2.5625 C -18.304688 -2.957031 -18.015625 -3.316406 -17.734375 -3.640625 C -17.460938 -3.972656 -17.222656 -4.238281 -17.015625 -4.4375 C -16.972656 -4.539062 -16.925781 -4.617188 -16.875 -4.671875 C -16.820312 -4.722656 -16.796875 -4.75 -16.796875 -4.75 C -16.796875 -4.894531 -16.617188 -5.09375 -16.265625 -5.34375 C -15.960938 -5.75 -15.8125 -5.976562 -15.8125 -6.03125 C -15.8125 -6.03125 -15.773438 -6.066406 -15.703125 -6.140625 C -15.628906 -6.210938 -15.566406 -6.273438 -15.515625 -6.328125 C -15.410156 -6.429688 -15.269531 -6.617188 -15.09375 -6.890625 C -14.925781 -7.171875 -14.816406 -7.332031 -14.765625 -7.375 L -14.453125 -7.90625 C -14.253906 -8.257812 -14.078125 -8.632812 -13.921875 -9.03125 C -13.773438 -9.4375 -13.726562 -9.738281 -13.78125 -9.9375 C -13.832031 -10.09375 -13.882812 -10.179688 -13.9375 -10.203125 C -13.988281 -10.234375 -14.140625 -10.25 -14.390625 -10.25 C -14.835938 -10.25 -15.113281 -10.195312 -15.21875 -10.09375 C -15.414062 -10.039062 -15.664062 -10.039062 -15.96875 -10.09375 C -16.269531 -10.144531 -16.46875 -10.195312 -16.5625 -10.25 C -16.71875 -10.394531 -16.742188 -10.59375 -16.640625 -10.84375 C -16.640625 -11.144531 -16.515625 -11.394531 -16.265625 -11.59375 C -15.410156 -12.300781 -14.609375 -12.273438 -13.859375 -11.515625 L -13.484375 -11.140625 L -11.296875 -11.59375 C -10.941406 -11.644531 -10.640625 -11.769531 -10.390625 -11.96875 C -10.140625 -12.175781 -9.515625 -12.707031 -8.515625 -13.5625 C -7.960938 -14.0625 -7.269531 -14.695312 -6.4375 -15.46875 C -5.613281 -16.25 -4.925781 -16.914062 -4.375 -17.46875 C -3.414062 -18.425781 -2.617188 -19.207031 -1.984375 -19.8125 C -1.359375 -20.414062 -0.875 -20.890625 -0.53125 -21.234375 C -0.375 -21.484375 -0.570312 -21.535156 -1.125 -21.390625 C -1.675781 -21.234375 -2.140625 -21.191406 -2.515625 -21.265625 C -2.898438 -21.347656 -3.09375 -21.515625 -3.09375 -21.765625 C -3.09375 -21.867188 -3.015625 -22.003906 -2.859375 -22.171875 C -2.710938 -22.347656 -2.613281 -22.4375 -2.5625 -22.4375 L -1.5 -23.203125 L -0.828125 -23.578125 C -0.378906 -23.921875 0.394531 -24.296875 1.5 -24.703125 C 1.601562 -24.753906 1.832031 -24.78125 2.1875 -24.78125 C 2.539062 -24.726562 2.789062 -24.523438 2.9375 -24.171875 L 3.234375 -23.578125 L 3.015625 -23.203125 C 2.960938 -23.148438 2.898438 -23.070312 2.828125 -22.96875 C 2.753906 -22.863281 2.691406 -22.8125 2.640625 -22.8125 C 2.535156 -22.769531 2.382812 -22.644531 2.1875 -22.4375 L 1.4375 -21.765625 C 1.082031 -21.460938 0.414062 -20.847656 -0.5625 -19.921875 C -1.539062 -18.992188 -2.40625 -18.175781 -3.15625 -17.46875 L -5.5 -15.28125 C -6.351562 -14.476562 -7.101562 -13.785156 -7.75 -13.203125 C -8.40625 -12.628906 -8.734375 -12.320312 -8.734375 -12.28125 C -8.484375 -12.28125 -8.03125 -12.351562 -7.375 -12.5 L -5.265625 -12.875 C -4.460938 -13.03125 -3.570312 -13.144531 -2.59375 -13.21875 C -1.613281 -13.289062 -1 -13.328125 -0.75 -13.328125 C 0.90625 -13.273438 1.734375 -12.972656 1.734375 -12.421875 C 1.734375 -12.273438 1.671875 -12.1875 1.546875 -12.15625 C 1.421875 -12.132812 1.304688 -12.175781 1.203125 -12.28125 C 1.148438 -12.375 1.035156 -12.445312 0.859375 -12.5 C 0.691406 -12.550781 0.332031 -12.628906 -0.21875 -12.734375 L -0.609375 -12.734375 C -0.648438 -12.734375 -0.785156 -12.742188 -1.015625 -12.765625 C -1.242188 -12.785156 -1.507812 -12.773438 -1.8125 -12.734375 L -3.921875 -12.5 L -4.8125 -12.421875 L -6.921875 -11.96875 C -8.179688 -11.71875 -9.023438 -11.53125 -9.453125 -11.40625 C -9.878906 -11.28125 -10.164062 -11.09375 -10.3125 -10.84375 L -10.84375 -10.25 L -11.96875 -9.109375 C -12.476562 -8.609375 -13.082031 -7.914062 -13.78125 -7.03125 C -14.488281 -6.15625 -15.191406 -5.242188 -15.890625 -4.296875 L -17.625 -1.890625 C -17.820312 -1.628906 -18.082031 -1.3125 -18.40625 -0.9375 C -18.738281 -0.5625 -18.976562 -0.300781 -19.125 -0.15625 L -19.8125 0.609375 C -20.0625 1.054688 -20.3125 1.203125 -20.5625 1.046875 Z M -1.4375 -22.0625 C -1.28125 -22.113281 -1.050781 -22.164062 -0.75 -22.21875 C -0.394531 -22.320312 0.117188 -22.5625 0.796875 -22.9375 C 1.472656 -23.3125 1.8125 -23.546875 1.8125 -23.640625 C 1.8125 -23.847656 1.6875 -23.898438 1.4375 -23.796875 C 1.332031 -23.742188 0.988281 -23.601562 0.40625 -23.375 C -0.164062 -23.15625 -0.476562 -23.019531 -0.53125 -22.96875 L -0.90625 -22.75 C -1.207031 -22.59375 -1.445312 -22.398438 -1.625 -22.171875 C -1.800781 -21.953125 -1.738281 -21.914062 -1.4375 -22.0625 Z M -15.140625 -10.84375 C -14.429688 -10.894531 -14.226562 -10.992188 -14.53125 -11.140625 C -14.9375 -11.296875 -15.265625 -11.320312 -15.515625 -11.21875 C -16.316406 -10.820312 -16.191406 -10.695312 -15.140625 -10.84375 Z M -12.5 -9.640625 L -11.671875 -10.546875 C -11.472656 -10.742188 -11.375 -10.867188 -11.375 -10.921875 L -11.453125 -11 L -11.828125 -10.84375 L -12.65625 -10.625 L -13.1875 -10.46875 L -13.25 -9.71875 C -13.300781 -9.257812 -13.289062 -9.03125 -13.21875 -9.03125 C -13.144531 -9.03125 -12.90625 -9.234375 -12.5 -9.640625 Z M -12.5 -9.640625 "/></g></g></g><g fill="#000000" fill-opacity="1"><g transform="translate(214.281461, 74.937188)"><g><path d="M -1.578125 -20.40625 L -1.8125 -20.78125 C -1.863281 -20.988281 -1.875 -21.191406 -1.84375 -21.390625 C -1.820312 -21.585938 -1.785156 -21.765625 -1.734375 -21.921875 C -1.628906 -22.265625 -1.265625 -22.75 -0.640625 -23.375 C -0.015625 -24.007812 0.421875 -24.476562 0.671875 -24.78125 C 0.921875 -24.976562 1.097656 -25.023438 1.203125 -24.921875 C 1.453125 -24.828125 1.378906 -24.53125 0.984375 -24.03125 C 0.628906 -23.625 0.175781 -23.09375 -0.375 -22.4375 C -0.925781 -21.789062 -1.175781 -21.390625 -1.125 -21.234375 C -1.03125 -21.035156 -0.753906 -21.0625 -0.296875 -21.3125 C 0.148438 -21.5625 0.632812 -21.910156 1.15625 -22.359375 C 1.6875 -22.816406 2.128906 -23.242188 2.484375 -23.640625 L 2.640625 -23.875 L 3.09375 -24.328125 L 3.234375 -24.546875 C 3.484375 -24.796875 3.710938 -24.898438 3.921875 -24.859375 C 4.222656 -24.753906 4.207031 -24.488281 3.875 -24.0625 C 3.550781 -23.632812 3.210938 -23.21875 2.859375 -22.8125 C 2.253906 -22.0625 2.054688 -21.535156 2.265625 -21.234375 C 2.304688 -21.035156 2.453125 -20.972656 2.703125 -21.046875 C 2.960938 -21.117188 3.09375 -21.15625 3.09375 -21.15625 C 3.644531 -21.257812 4.472656 -21.535156 5.578125 -21.984375 C 6.679688 -22.441406 8.0625 -23.019531 9.71875 -23.71875 L 9.859375 -23.796875 L 10.015625 -23.796875 L 10.171875 -23.71875 C 10.265625 -23.664062 10.300781 -23.601562 10.28125 -23.53125 C 10.257812 -23.457031 10.195312 -23.394531 10.09375 -23.34375 L 9.1875 -22.890625 L 5.875 -21.390625 C 5.164062 -21.085938 4.523438 -20.847656 3.953125 -20.671875 C 3.378906 -20.492188 3.09375 -20.40625 3.09375 -20.40625 L 2.859375 -20.40625 C 2.210938 -20.257812 1.8125 -20.335938 1.65625 -20.640625 C 1.507812 -20.941406 1.457031 -21.265625 1.5 -21.609375 L 1.5 -21.921875 L 1.4375 -21.84375 L 0.90625 -21.390625 C 0.707031 -21.234375 0.394531 -21.03125 -0.03125 -20.78125 C -0.457031 -20.53125 -0.820312 -20.40625 -1.125 -20.40625 Z M -1.578125 -20.40625 "/></g></g></g><g fill="#000000" fill-opacity="1"><g transform="translate(224.297795, 74.937188)"><g><path d="M -0.75 -20.5625 C -1.351562 -20.507812 -1.726562 -20.492188 -1.875 -20.515625 C -2.03125 -20.546875 -2.132812 -20.6875 -2.1875 -20.9375 C -2.28125 -21.1875 -2.179688 -21.5625 -1.890625 -22.0625 C -1.484375 -22.664062 -0.898438 -23.269531 -0.140625 -23.875 C 0.609375 -24.476562 1.359375 -24.90625 2.109375 -25.15625 C 3.316406 -25.601562 3.992188 -25.628906 4.140625 -25.234375 C 4.191406 -25.023438 3.640625 -24.519531 2.484375 -23.71875 C 1.828125 -23.269531 1.285156 -22.929688 0.859375 -22.703125 C 0.429688 -22.484375 0.0195312 -22.320312 -0.375 -22.21875 C -0.820312 -22.113281 -1.097656 -21.9375 -1.203125 -21.6875 C -1.398438 -21.488281 -1.425781 -21.363281 -1.28125 -21.3125 C -0.832031 -21.164062 1.523438 -22.019531 5.796875 -23.875 L 5.953125 -23.953125 L 6.171875 -23.953125 L 6.25 -23.875 C 6.445312 -23.769531 6.472656 -23.644531 6.328125 -23.5 L 5.34375 -23.046875 L 1.953125 -21.546875 C 1.304688 -21.191406 0.789062 -20.960938 0.40625 -20.859375 C 0.03125 -20.765625 -0.351562 -20.664062 -0.75 -20.5625 Z M -0.15625 -23.046875 C -0.195312 -22.992188 -0.109375 -23.003906 0.109375 -23.078125 C 0.335938 -23.160156 0.648438 -23.300781 1.046875 -23.5 C 1.398438 -23.695312 1.789062 -23.929688 2.21875 -24.203125 C 2.644531 -24.484375 2.882812 -24.648438 2.9375 -24.703125 C 2.9375 -24.804688 2.796875 -24.796875 2.515625 -24.671875 C 2.242188 -24.546875 1.984375 -24.429688 1.734375 -24.328125 C 1.484375 -24.273438 1.117188 -24.070312 0.640625 -23.71875 C 0.160156 -23.375 -0.101562 -23.148438 -0.15625 -23.046875 Z M -0.15625 -23.046875 "/></g></g></g><path stroke-linecap="butt" transform="matrix(0.749982, -0.00520926, 0.00520926, 0.749982, 70.89415, 62.631078)" fill="none" stroke-linejoin="miter" d="M 0.00222773 0.50234 L 208.981244 0.500716 " stroke="#000000" stroke-width="1" stroke-opacity="1" stroke-miterlimit="4"/></svg>