<svg xmlns="http://www.w3.org/2000/svg" xmlns:xlink="http://www.w3.org/1999/xlink" width="40" zoomAndPan="magnify" viewBox="0 0 30 30.000001" height="40" preserveAspectRatio="xMidYMid meet" version="1.0"><defs><g/><clipPath id="fdd05152dd"><path d="M 0.484375 0 L 29.515625 0 L 29.515625 29.03125 L 0.484375 29.03125 Z M 0.484375 0 " clip-rule="nonzero"/></clipPath><clipPath id="62d7d3116c"><path d="M 13.070312 13.449219 L 18.203125 13.449219 L 18.203125 19.371094 L 13.070312 19.371094 Z M 13.070312 13.449219 " clip-rule="nonzero"/></clipPath><clipPath id="9e27b00659"><path d="M 15 3.878906 L 18.203125 3.878906 L 18.203125 13.449219 L 15 13.449219 Z M 15 3.878906 " clip-rule="nonzero"/></clipPath><clipPath id="613917a49c"><path d="M 13.796875 3.878906 L 16.734375 3.878906 L 16.734375 6.921875 L 13.796875 6.921875 Z M 13.796875 3.878906 " clip-rule="nonzero"/></clipPath></defs><g clip-path="url(#fdd05152dd)"><path fill="#ffffff" d="M 0.484375 0 L 29.515625 0 L 29.515625 29.03125 L 0.484375 29.03125 Z M 0.484375 0 " fill-opacity="1" fill-rule="nonzero"/><path fill="#ffffff" d="M 0.484375 0 L 29.515625 0 L 29.515625 29.03125 L 0.484375 29.03125 Z M 0.484375 0 " fill-opacity="1" fill-rule="nonzero"/></g><g fill="#020202" fill-opacity="1"><g transform="translate(1.735006, 17.513027)"><g><path d="M 0.484375 -16.1875 L 0.484375 -16.34375 L 12.1875 -16.34375 L 12.1875 -14.140625 L 12.03125 -14.140625 L 12.03125 -14.203125 C 12.03125 -14.742188 11.515625 -15.207031 10.484375 -15.59375 C 9.453125 -15.988281 7.992188 -16.1875 6.109375 -16.1875 L 3.40625 -16.1875 L 3.40625 -9.15625 C 3.65625 -9.394531 3.9375 -9.578125 4.25 -9.703125 C 4.570312 -9.835938 4.921875 -9.90625 5.296875 -9.90625 C 5.703125 -9.90625 6.066406 -9.851562 6.390625 -9.75 C 6.722656 -9.644531 7.039062 -9.523438 7.34375 -9.390625 C 7.644531 -9.265625 7.945312 -9.148438 8.25 -9.046875 C 8.5625 -8.941406 8.894531 -8.890625 9.25 -8.890625 C 9.5625 -8.890625 9.835938 -8.972656 10.078125 -9.140625 C 10.328125 -9.304688 10.453125 -9.535156 10.453125 -9.828125 L 10.625 -9.828125 C 10.625 -9.347656 10.4375 -8.925781 10.0625 -8.5625 C 9.6875 -8.207031 9.175781 -8.03125 8.53125 -8.03125 C 8.03125 -8.03125 7.59375 -8.097656 7.21875 -8.234375 C 6.851562 -8.378906 6.519531 -8.539062 6.21875 -8.71875 C 5.925781 -8.90625 5.644531 -9.070312 5.375 -9.21875 C 5.113281 -9.375 4.835938 -9.457031 4.546875 -9.46875 C 4.304688 -9.476562 4.085938 -9.425781 3.890625 -9.3125 C 3.691406 -9.207031 3.53125 -9.066406 3.40625 -8.890625 L 3.40625 -0.15625 L 5.484375 -0.15625 C 5.753906 -0.15625 6.097656 -0.164062 6.515625 -0.1875 C 6.929688 -0.207031 7.382812 -0.242188 7.875 -0.296875 C 8.363281 -0.347656 8.847656 -0.429688 9.328125 -0.546875 C 9.816406 -0.660156 10.265625 -0.8125 10.671875 -1 C 11.085938 -1.1875 11.414062 -1.414062 11.65625 -1.6875 C 11.90625 -1.96875 12.03125 -2.304688 12.03125 -2.703125 L 12.1875 -2.703125 L 12.1875 0 L 0.484375 0 L 0.484375 -0.15625 C 0.953125 -0.15625 1.289062 -0.296875 1.5 -0.578125 C 1.71875 -0.867188 1.851562 -1.332031 1.90625 -1.96875 C 1.96875 -2.613281 2 -3.472656 2 -4.546875 L 2 -11.796875 C 2 -12.878906 1.96875 -13.738281 1.90625 -14.375 C 1.851562 -15.007812 1.71875 -15.46875 1.5 -15.75 C 1.289062 -16.039062 0.953125 -16.1875 0.484375 -16.1875 Z M 0.484375 -16.1875 "/></g></g></g><g clip-path="url(#62d7d3116c)"><path fill="#ffffff" d="M 13.070312 13.449219 L 18.203125 13.449219 L 18.203125 19.363281 L 13.070312 19.363281 Z M 13.070312 13.449219 " fill-opacity="1" fill-rule="nonzero"/></g><g clip-path="url(#9e27b00659)"><path fill="#ffffff" d="M 15 3.878906 L 18.203125 3.878906 L 18.203125 13.449219 L 15 13.449219 Z M 15 3.878906 " fill-opacity="1" fill-rule="nonzero"/></g><g clip-path="url(#613917a49c)"><path fill="#ffffff" d="M 13.796875 3.878906 L 16.734375 3.878906 L 16.734375 6.917969 L 13.796875 6.917969 Z M 13.796875 3.878906 " fill-opacity="1" fill-rule="nonzero"/></g><g fill="#020202" fill-opacity="1"><g transform="translate(13.070758, 27.490971)"><g><path d="M 0.5625 -18.8125 L 2.75 -18.8125 C 3.300781 -18.8125 3.90625 -18.84375 4.5625 -18.90625 C 5.226562 -18.96875 5.894531 -19.03125 6.5625 -19.09375 C 7.226562 -19.15625 7.835938 -19.1875 8.390625 -19.1875 C 9.054688 -19.1875 9.691406 -19.128906 10.296875 -19.015625 C 10.910156 -18.898438 11.453125 -18.707031 11.921875 -18.4375 C 12.398438 -18.175781 12.773438 -17.820312 13.046875 -17.375 C 13.328125 -16.9375 13.46875 -16.390625 13.46875 -15.734375 C 13.46875 -15.023438 13.3125 -14.421875 13 -13.921875 C 12.695312 -13.421875 12.289062 -12.988281 11.78125 -12.625 C 11.28125 -12.269531 10.726562 -11.96875 10.125 -11.71875 C 9.519531 -11.46875 8.914062 -11.238281 8.3125 -11.03125 C 7.707031 -10.832031 7.148438 -10.644531 6.640625 -10.46875 C 6.140625 -10.289062 5.734375 -10.09375 5.421875 -9.875 C 5.117188 -9.664062 4.96875 -9.410156 4.96875 -9.109375 C 4.96875 -8.890625 5.03125 -8.75 5.15625 -8.6875 C 5.28125 -8.632812 5.398438 -8.609375 5.515625 -8.609375 C 5.773438 -8.609375 6.09375 -8.707031 6.46875 -8.90625 C 6.851562 -9.101562 7.289062 -9.296875 7.78125 -9.484375 C 8.269531 -9.671875 8.816406 -9.765625 9.421875 -9.765625 C 10.390625 -9.765625 11.269531 -9.566406 12.0625 -9.171875 C 12.851562 -8.785156 13.484375 -8.238281 13.953125 -7.53125 C 14.421875 -6.832031 14.65625 -6.007812 14.65625 -5.0625 C 14.65625 -3.976562 14.410156 -3.023438 13.921875 -2.203125 C 13.441406 -1.390625 12.738281 -0.753906 11.8125 -0.296875 C 10.882812 0.148438 9.75 0.375 8.40625 0.375 C 7.675781 0.375 7.019531 0.34375 6.4375 0.28125 C 5.851562 0.21875 5.273438 0.15625 4.703125 0.09375 C 4.140625 0.03125 3.515625 0 2.828125 0 L 0.5625 0 L 0.5625 -0.1875 C 1.101562 -0.1875 1.492188 -0.347656 1.734375 -0.671875 C 1.984375 -1.003906 2.140625 -1.539062 2.203125 -2.28125 C 2.265625 -3.019531 2.296875 -4.003906 2.296875 -5.234375 L 2.296875 -13.578125 C 2.296875 -14.816406 2.265625 -15.800781 2.203125 -16.53125 C 2.140625 -17.269531 1.984375 -17.800781 1.734375 -18.125 C 1.492188 -18.457031 1.101562 -18.625 0.5625 -18.625 Z M 3.890625 -18.40625 L 3.890625 -0.484375 C 4.472656 -0.285156 5.019531 -0.132812 5.53125 -0.03125 C 6.039062 0.0625 6.644531 0.109375 7.34375 0.109375 C 8.507812 0.109375 9.515625 -0.09375 10.359375 -0.5 C 11.210938 -0.90625 11.867188 -1.484375 12.328125 -2.234375 C 12.796875 -2.992188 13.03125 -3.890625 13.03125 -4.921875 C 13.03125 -5.492188 12.953125 -6.050781 12.796875 -6.59375 C 12.640625 -7.132812 12.40625 -7.628906 12.09375 -8.078125 C 11.789062 -8.535156 11.414062 -8.894531 10.96875 -9.15625 C 10.519531 -9.425781 10 -9.5625 9.40625 -9.5625 C 8.875 -9.5625 8.375 -9.46875 7.90625 -9.28125 C 7.445312 -9.09375 7.015625 -8.898438 6.609375 -8.703125 C 6.203125 -8.515625 5.8125 -8.421875 5.4375 -8.421875 C 5.269531 -8.421875 5.117188 -8.472656 4.984375 -8.578125 C 4.847656 -8.679688 4.78125 -8.84375 4.78125 -9.0625 C 4.78125 -9.476562 4.945312 -9.84375 5.28125 -10.15625 C 5.625 -10.46875 6.0625 -10.757812 6.59375 -11.03125 C 7.132812 -11.3125 7.707031 -11.59375 8.3125 -11.875 C 8.914062 -12.15625 9.488281 -12.472656 10.03125 -12.828125 C 10.570312 -13.179688 11.007812 -13.585938 11.34375 -14.046875 C 11.6875 -14.515625 11.859375 -15.0625 11.859375 -15.6875 C 11.859375 -16.46875 11.632812 -17.09375 11.1875 -17.5625 C 10.75 -18.039062 10.179688 -18.382812 9.484375 -18.59375 C 8.796875 -18.8125 8.066406 -18.921875 7.296875 -18.921875 C 6.679688 -18.921875 6.097656 -18.875 5.546875 -18.78125 C 4.992188 -18.695312 4.441406 -18.570312 3.890625 -18.40625 Z M 3.890625 -18.40625 "/></g></g></g></svg>